<svg xmlns="http://www.w3.org/2000/svg" xmlns:xlink="http://www.w3.org/1999/xlink" width="500" zoomAndPan="magnify" viewBox="0 0 375 374.999991" height="500" preserveAspectRatio="xMidYMid meet" version="1.0"><defs><g/><clipPath id="51ec2dc291"><path d="M 93.59375 114 L 281 114 L 281 263.886719 L 93.59375 263.886719 Z M 93.59375 114 " clip-rule="nonzero"/></clipPath></defs><rect x="-37.5" width="450" fill="#ffffff" y="-37.499999" height="449.999989" fill-opacity="1"/><rect x="-37.5" width="450" fill="#ffffff" y="-37.499999" height="449.999989" fill-opacity="1"/><rect x="-37.5" width="450" fill="#f8f8f8" y="-37.499999" height="449.999989" fill-opacity="1"/><g clip-path="url(#51ec2dc291)"><path fill="#000000" d="M 155.214844 145.355469 C 156.199219 145.128906 157.171875 144.84375 158.164062 144.691406 C 161.34375 144.191406 164.5 144.3125 167.636719 145.058594 C 168.535156 145.304688 169.371094 145.171875 170.152344 144.660156 C 174.195312 142.171875 178.511719 140.320312 183.097656 139.097656 C 184.667969 138.6875 185.460938 138 186.125 136.515625 C 190.273438 127.101562 197.390625 120.757812 206.976562 117.277344 C 218.0625 113.253906 229.058594 113.988281 239.761719 118.742188 C 249.398438 123.007812 256.742188 129.816406 261.457031 139.320312 C 262.917969 142.214844 263.972656 145.246094 264.628906 148.417969 C 265.285156 151.59375 265.511719 154.796875 265.316406 158.03125 C 265.199219 159.964844 264.84375 161.882812 264.585938 163.921875 C 264.816406 164.023438 265.121094 164.140625 265.402344 164.289062 C 266.417969 164.84375 267.472656 165.34375 268.421875 165.996094 C 268.914062 166.316406 269.324219 166.726562 269.652344 167.214844 C 269.980469 167.707031 270.199219 168.242188 270.308594 168.824219 C 270.421875 169.328125 270.710938 169.695312 271.179688 169.917969 C 272.289062 170.613281 273.355469 171.367188 274.378906 172.183594 C 275.820312 173.359375 276.785156 174.84375 277.277344 176.632812 C 277.648438 177.898438 277.617188 179.152344 277.183594 180.394531 C 276.933594 181.101562 277.101562 181.542969 277.566406 182.09375 C 281.21875 186.449219 281.839844 191.355469 279.976562 196.621094 C 279.582031 197.71875 278.863281 198.726562 278.332031 199.707031 C 278.578125 200.910156 278.953125 202.097656 279.042969 203.304688 C 279.195312 205.375 278.566406 207.328125 277.605469 209.125 C 277.078125 210.160156 276.742188 211.257812 276.609375 212.414062 C 276.242188 214.894531 275.929688 217.386719 275.511719 219.855469 C 274.820312 223.828125 272.761719 226.847656 269.058594 228.609375 C 268.578125 228.820312 268.304688 229.1875 268.242188 229.707031 C 267.960938 231.0625 267.597656 232.398438 267.144531 233.707031 C 265.730469 237.542969 262.941406 239.804688 258.953125 240.578125 C 258.363281 240.691406 257.996094 240.878906 257.835938 241.464844 C 257.734375 241.785156 257.613281 242.097656 257.46875 242.402344 C 256.113281 245.539062 253.816406 247.574219 250.449219 248.277344 C 248.988281 248.578125 247.511719 248.792969 246.023438 248.929688 C 245.742188 248.925781 245.480469 248.992188 245.242188 249.136719 C 245 249.28125 244.816406 249.476562 244.6875 249.726562 C 244.292969 250.453125 243.84375 251.140625 243.335938 251.789062 C 240.992188 254.761719 237.917969 256.179688 234.128906 255.996094 C 233.046875 255.917969 231.976562 255.78125 230.910156 255.578125 C 230.523438 255.476562 230.1875 255.566406 229.902344 255.84375 C 224.386719 260.785156 218.046875 261.1875 211.304688 259.171875 C 211.046875 259.0625 210.78125 259.042969 210.511719 259.113281 C 210.242188 259.179688 210.019531 259.320312 209.839844 259.535156 C 208.199219 261.265625 206.222656 262.421875 203.914062 263.007812 C 201.574219 263.613281 199.246094 263.566406 196.933594 262.859375 C 195.972656 262.546875 195.074219 262.101562 194.238281 261.53125 C 194.023438 261.351562 193.777344 261.246094 193.5 261.21875 C 193.21875 261.1875 192.957031 261.238281 192.707031 261.367188 C 190.476562 262.386719 188.140625 263.011719 185.695312 263.238281 C 181.976562 263.527344 178.246094 263.535156 174.777344 261.972656 C 174.171875 261.667969 173.527344 261.511719 172.847656 261.503906 C 172.171875 261.496094 171.523438 261.632812 170.910156 261.921875 C 168.945312 262.71875 166.90625 263.183594 164.789062 263.320312 C 162.675781 263.457031 160.59375 263.257812 158.542969 262.71875 C 156.714844 262.300781 155.109375 261.453125 153.730469 260.179688 C 153.25 259.714844 152.679688 259.53125 152.019531 259.628906 C 149.363281 259.792969 146.707031 259.742188 144.105469 259.070312 C 143.480469 258.925781 142.871094 258.738281 142.277344 258.503906 C 138.542969 256.976562 137.160156 255.714844 135.769531 253.234375 C 133.984375 253.152344 132.226562 253.160156 130.488281 252.957031 C 129.226562 252.792969 127.996094 252.5 126.796875 252.074219 C 125.855469 251.773438 125.015625 251.292969 124.273438 250.640625 C 123.53125 249.984375 122.949219 249.210938 122.53125 248.3125 C 122.382812 247.945312 122.144531 247.648438 121.824219 247.421875 C 121.5 247.195312 121.140625 247.074219 120.746094 247.058594 C 119.78125 246.933594 118.832031 246.734375 117.898438 246.453125 C 112.96875 244.992188 109.390625 242.019531 107.785156 236.976562 C 107.660156 236.53125 107.386719 236.210938 106.964844 236.019531 C 106.4375 235.726562 105.96875 235.363281 105.558594 234.921875 C 103.992188 233.328125 102.890625 231.414062 101.953125 229.402344 C 100.074219 225.378906 98.839844 221.144531 97.691406 216.875 C 96.589844 212.777344 95.832031 208.621094 95.417969 204.402344 C 95.308594 203.253906 95.054688 202.078125 95.175781 200.953125 C 95.328125 199.519531 95.796875 198.121094 96.175781 196.507812 C 96.226562 196.605469 96.175781 196.460938 96.085938 196.34375 C 93.929688 193.417969 93.601562 190.152344 94.167969 186.707031 C 94.496094 184.652344 95.15625 182.714844 96.152344 180.886719 C 96.808594 179.589844 97.734375 178.53125 98.9375 177.714844 C 99.332031 177.449219 99.566406 177.082031 99.644531 176.617188 C 101.203125 170.84375 104.703125 166.695312 110.183594 164.296875 C 110.777344 164.101562 111.175781 163.707031 111.386719 163.121094 C 112.183594 160.949219 113.699219 159.296875 115.40625 157.808594 C 117.992188 155.597656 120.957031 154.15625 124.292969 153.484375 C 125.0625 153.355469 125.65625 152.960938 126.074219 152.304688 C 127.171875 150.703125 128.714844 149.667969 130.460938 148.933594 C 133.640625 147.601562 136.953125 146.921875 140.398438 146.898438 C 141.207031 146.933594 141.921875 146.6875 142.539062 146.167969 C 143.621094 145.214844 144.839844 144.5 146.199219 144.023438 C 147.558594 143.542969 148.957031 143.335938 150.394531 143.402344 C 151.773438 143.519531 153.132812 143.753906 154.472656 144.097656 C 155.320312 144.289062 155.34375 144.421875 155.222656 145.386719 C 154.742188 145.292969 154.269531 145.179688 153.789062 145.117188 C 152.460938 144.945312 151.121094 144.652344 149.792969 144.664062 C 148.695312 144.675781 147.628906 144.867188 146.59375 145.246094 C 145.5625 145.621094 144.621094 146.160156 143.773438 146.859375 C 143.878906 147.285156 144.113281 147.679688 144.015625 147.957031 C 143.828125 148.445312 143.3125 148.222656 142.917969 148.207031 C 142.097656 148.164062 141.273438 148.039062 140.457031 148.078125 C 137.988281 148.203125 135.570312 148.621094 133.203125 149.339844 C 131.59375 149.757812 130.113281 150.453125 128.757812 151.421875 C 128.300781 151.785156 127.910156 152.203125 127.5 152.582031 C 127.652344 152.75 127.691406 152.828125 127.75 152.847656 C 128.113281 152.964844 128.558594 153.007812 128.480469 153.515625 C 128.414062 153.96875 127.992188 154.003906 127.609375 154.066406 C 126.796875 154.195312 125.988281 154.339844 125.1875 154.523438 C 121.382812 155.378906 117.949219 156.960938 115.214844 159.804688 C 114.378906 160.757812 113.613281 161.769531 112.929688 162.839844 C 112.773438 163.09375 112.734375 163.367188 112.816406 163.65625 C 113.152344 164.609375 113.179688 164.585938 112.285156 164.863281 C 106.617188 166.605469 103.125 170.550781 101.148438 175.996094 C 101.019531 176.347656 101.011719 176.699219 101.117188 177.058594 C 101.332031 177.617188 101.175781 177.914062 100.671875 178.121094 C 98.894531 178.851562 97.832031 180.261719 97.039062 181.921875 C 96 184.074219 95.40625 186.34375 95.257812 188.726562 C 95.097656 191.320312 95.664062 193.71875 97.292969 195.785156 C 97.488281 195.992188 97.597656 196.234375 97.617188 196.519531 C 97.640625 196.800781 97.570312 197.0625 97.410156 197.296875 C 95.8125 200.453125 95.96875 203.492188 98.140625 206.367188 C 99.539062 208.15625 101.207031 209.644531 103.148438 210.828125 C 103.867188 211.261719 104.339844 211.886719 104.558594 212.703125 C 104.972656 214.117188 105.589844 215.433594 106.410156 216.65625 C 107.230469 217.875 108.214844 218.945312 109.367188 219.863281 C 111.296875 221.40625 113.597656 221.652344 115.941406 221.695312 C 116.78125 221.695312 116.824219 221.589844 116.996094 222.386719 C 117.292969 223.78125 117.492188 225.199219 117.886719 226.5625 C 118.199219 227.714844 118.648438 228.8125 119.234375 229.851562 C 119.695312 230.652344 120.324219 231.28125 121.121094 231.738281 C 121.921875 232.199219 122.78125 232.421875 123.703125 232.414062 C 125.496094 232.492188 127.195312 232.128906 128.796875 231.316406 C 129.261719 231.078125 129.738281 230.855469 130.21875 230.652344 C 131.023438 230.308594 131.019531 230.320312 131.621094 231.015625 C 132.117188 231.625 132.648438 232.207031 133.207031 232.757812 C 135.734375 235.074219 138.59375 236.648438 142.125 236.707031 C 144.703125 236.71875 147.074219 236.019531 149.238281 234.613281 C 150.203125 234.023438 150.367188 234.039062 151.214844 234.765625 C 152.414062 235.824219 153.785156 236.554688 155.332031 236.960938 C 158.429688 237.761719 161.539062 237.832031 164.667969 237.164062 C 166.859375 236.699219 168.832031 235.703125 170.71875 234.550781 C 171.621094 233.988281 172.367188 234 173.3125 234.488281 C 176.96875 236.355469 180.871094 236.75 184.890625 236.289062 C 187.164062 236 189.371094 235.445312 191.507812 234.621094 C 191.785156 234.492188 192.074219 234.449219 192.375 234.496094 C 192.675781 234.539062 192.941406 234.660156 193.167969 234.863281 C 196.609375 237.660156 200.589844 238.386719 204.886719 237.839844 C 207.277344 237.511719 209.558594 236.824219 211.738281 235.785156 C 213 235.203125 214.113281 234.957031 215.21875 236.003906 C 215.398438 236.140625 215.59375 236.25 215.804688 236.332031 C 219.253906 238.011719 222.804688 238.03125 226.402344 236.9375 C 229.34375 236.046875 231.910156 234.597656 233.535156 231.847656 C 233.898438 231.265625 234.351562 231.164062 234.964844 231.273438 C 236.105469 231.472656 237.25 231.699219 238.398438 231.816406 C 241.753906 232.15625 244.890625 231.574219 247.585938 229.394531 C 248.773438 228.519531 249.585938 227.378906 250.027344 225.972656 C 250.058594 225.777344 250.125 225.59375 250.226562 225.425781 C 250.328125 225.253906 250.453125 225.105469 250.605469 224.980469 C 250.761719 224.859375 250.929688 224.765625 251.121094 224.703125 C 251.308594 224.640625 251.5 224.613281 251.695312 224.625 C 251.996094 224.597656 252.292969 224.554688 252.585938 224.492188 C 254.441406 224.207031 256.238281 223.707031 257.972656 222.988281 C 259.046875 222.546875 259.988281 221.914062 260.800781 221.085938 C 261.617188 220.261719 262.238281 219.3125 262.664062 218.234375 C 262.914062 217.648438 263.089844 217.035156 263.320312 216.441406 C 263.597656 215.710938 263.898438 215.515625 264.679688 215.53125 C 264.976562 215.53125 265.273438 215.601562 265.570312 215.621094 C 266.71875 215.742188 267.851562 215.65625 268.964844 215.355469 C 270.078125 215.054688 271.101562 214.5625 272.035156 213.882812 C 273.417969 212.863281 274.582031 211.640625 275.527344 210.207031 C 276.472656 208.773438 277.140625 207.222656 277.535156 205.550781 C 277.96875 203.824219 277.933594 202.101562 277.003906 200.539062 C 276.570312 199.808594 276.730469 199.367188 277.191406 198.75 C 277.878906 197.90625 278.425781 196.980469 278.828125 195.96875 C 280.472656 191.058594 279.851562 186.503906 276.371094 182.527344 C 275.746094 181.796875 275.558594 181.136719 275.859375 180.285156 C 276.628906 178.132812 276.054688 176.238281 274.765625 174.472656 C 273.722656 173.121094 272.460938 172.023438 270.976562 171.179688 C 270.335938 170.789062 269.671875 170.449219 269.011719 170.085938 C 268.585938 169.847656 268.378906 169.507812 268.6875 169.078125 C 268.820312 168.90625 268.871094 168.714844 268.839844 168.5 C 268.8125 168.285156 268.710938 168.113281 268.539062 167.980469 C 267.882812 167.320312 267.179688 166.714844 266.421875 166.175781 C 265.769531 165.726562 265.046875 165.296875 264.230469 165.296875 L 261.671875 171.828125 C 261.6875 171.890625 261.710938 171.945312 261.75 171.996094 C 261.894531 172.167969 262.046875 172.328125 262.207031 172.496094 C 265.277344 175.65625 267.574219 179.304688 269.089844 183.449219 C 271.085938 188.960938 270.882812 194.367188 268.15625 199.648438 C 266.78125 202.371094 265.054688 204.851562 262.984375 207.089844 C 260.910156 209.324219 258.570312 211.234375 255.960938 212.8125 C 241.136719 221.847656 225.132812 227.296875 207.804688 228.613281 C 201.503906 229.09375 195.183594 229.34375 188.859375 229.507812 C 182.800781 229.667969 176.738281 229.578125 170.675781 229.597656 C 166.480469 229.625 162.296875 229.382812 158.132812 228.867188 C 149.8125 227.808594 141.59375 226.222656 133.472656 224.109375 C 120.558594 220.730469 111.804688 212.613281 107.472656 199.890625 C 106.207031 196.25 105.839844 192.519531 106.375 188.699219 C 107.054688 183.921875 109.003906 179.667969 111.726562 175.738281 C 116.09375 169.4375 121.992188 164.914062 128.589844 161.203125 C 128.9375 160.972656 129.316406 160.820312 129.730469 160.75 C 130.351562 160.699219 130.613281 160.347656 130.871094 159.859375 C 131.542969 158.585938 132.417969 157.476562 133.5 156.53125 C 134.582031 155.585938 135.796875 154.867188 137.148438 154.371094 C 139.847656 153.300781 142.648438 152.71875 145.550781 152.625 C 145.828125 152.628906 146.09375 152.566406 146.335938 152.433594 C 146.582031 152.296875 146.777344 152.113281 146.925781 151.875 C 148.832031 149.230469 151.269531 147.234375 154.230469 145.878906 C 154.558594 145.707031 154.882812 145.523438 155.214844 145.355469 Z M 184.773438 139.832031 C 184.085938 140.015625 183.652344 140.117188 183.238281 140.25 C 178.902344 141.621094 174.773438 143.449219 170.84375 145.738281 C 168.234375 147.238281 165.832031 149.011719 163.625 151.058594 C 161.316406 153.253906 159.359375 155.679688 158.199219 158.683594 C 156.933594 161.976562 157.027344 165.203125 158.648438 168.355469 C 159.015625 169.085938 159.457031 169.789062 159.863281 170.503906 C 160.023438 170.710938 160.144531 170.941406 160.226562 171.1875 C 160.277344 171.445312 160.21875 171.671875 160.054688 171.871094 C 159.90625 171.984375 159.574219 171.921875 159.351562 171.847656 C 159.183594 171.765625 159.050781 171.640625 158.957031 171.480469 C 157.449219 169.253906 156.285156 166.886719 156.082031 164.144531 C 155.804688 160.410156 157.078125 157.15625 159.1875 154.167969 C 161.148438 151.378906 163.636719 149.121094 166.378906 147.125 C 166.6875 146.894531 166.980469 146.640625 167.382812 146.320312 C 167.144531 146.214844 166.902344 146.132812 166.652344 146.070312 C 163.363281 145.558594 160.074219 145.398438 156.859375 146.359375 C 150.886719 148.117188 147.148438 152.265625 145.214844 158.117188 C 143.984375 161.84375 144.441406 165.433594 146.390625 168.835938 C 147.617188 170.960938 149.113281 172.871094 150.875 174.574219 C 152.222656 175.921875 153.746094 177.027344 155.441406 177.890625 C 157.140625 178.75 158.929688 179.328125 160.8125 179.621094 C 163.734375 180.089844 166.628906 179.9375 169.542969 179.660156 C 170.320312 179.585938 171.097656 179.460938 171.878906 179.378906 C 172.296875 179.332031 172.769531 179.316406 172.882812 179.84375 C 172.996094 180.367188 172.574219 180.535156 172.152344 180.628906 C 171.933594 180.6875 171.710938 180.730469 171.488281 180.765625 C 168.253906 181.089844 165.019531 181.449219 161.753906 181.066406 C 158.578125 180.703125 155.605469 179.769531 152.964844 177.945312 C 149.441406 175.507812 146.714844 172.378906 144.78125 168.554688 C 143.648438 166.375 143.144531 164.058594 143.277344 161.605469 C 143.414062 159.292969 143.992188 157.101562 145.015625 155.023438 C 145.183594 154.65625 145.328125 154.3125 145.535156 153.84375 C 145.121094 153.84375 144.898438 153.84375 144.679688 153.84375 C 141.597656 154.136719 138.59375 154.847656 135.910156 156.425781 C 132.375 158.515625 130.679688 161.777344 130.640625 165.867188 C 130.617188 168.585938 131.621094 170.988281 133.101562 173.210938 C 134.484375 175.1875 136.101562 176.941406 137.953125 178.480469 C 141.90625 181.929688 146.308594 184.515625 151.472656 185.742188 C 156.410156 186.917969 161.40625 186.953125 166.425781 186.601562 C 167.0625 186.558594 167.691406 186.511719 168.328125 186.488281 C 168.695312 186.488281 169.019531 186.597656 169.058594 187.023438 C 169.101562 187.445312 168.777344 187.597656 168.4375 187.691406 C 168.21875 187.742188 168 187.773438 167.773438 187.789062 C 164.492188 188.117188 161.203125 188.191406 157.90625 188.007812 C 155.023438 187.828125 152.195312 187.335938 149.421875 186.523438 C 143.246094 184.695312 138.261719 180.996094 133.933594 176.355469 C 131.660156 174.003906 130.1875 171.222656 129.523438 168.019531 C 129.523438 167.925781 129.398438 167.847656 129.328125 167.753906 C 129.214844 167.769531 129.105469 167.804688 129.003906 167.851562 C 128.734375 168.054688 128.46875 168.261719 128.214844 168.480469 C 125 171.335938 123.078125 174.828125 122.675781 179.171875 C 122.3125 183.171875 123.476562 186.507812 126.605469 189.046875 C 131.167969 192.757812 136.46875 194.308594 142.28125 194.035156 C 144.253906 193.945312 146.21875 193.613281 148.1875 193.390625 C 148.441406 193.328125 148.699219 193.316406 148.957031 193.351562 C 149.167969 193.417969 149.441406 193.648438 149.46875 193.835938 C 149.449219 194.097656 149.328125 194.296875 149.101562 194.433594 C 148.757812 194.589844 148.398438 194.683594 148.023438 194.714844 C 146.46875 194.910156 144.90625 195.117188 143.34375 195.253906 C 137.089844 195.808594 131.40625 194.28125 126.34375 190.527344 C 126.136719 190.386719 125.925781 190.265625 125.703125 190.160156 C 125.667969 190.257812 125.644531 190.359375 125.628906 190.464844 C 125.636719 190.613281 125.65625 190.757812 125.6875 190.90625 C 126.570312 194.882812 128.300781 198.394531 131.351562 201.144531 C 135.339844 204.757812 140.089844 206.699219 145.382812 207.390625 C 148.289062 207.734375 151.199219 207.816406 154.117188 207.636719 C 158.390625 207.480469 162.625 206.980469 166.820312 206.140625 C 171.449219 205.164062 175.875 203.550781 180.242188 201.753906 C 185.90625 199.445312 191.457031 196.847656 196.695312 193.59375 C 201.933594 190.355469 206.257812 186.171875 209.664062 181.039062 C 210.988281 179.082031 211.964844 176.96875 212.597656 174.691406 C 213.230469 172.417969 213.488281 170.101562 213.367188 167.742188 C 213.363281 166.960938 213.21875 166.210938 212.933594 165.484375 C 212.644531 165.820312 212.449219 166.035156 212.269531 166.261719 C 211.09375 167.777344 209.617188 168.890625 207.839844 169.601562 C 205.191406 170.660156 202.722656 170.375 200.445312 168.589844 C 200.230469 168.4375 200.007812 168.300781 199.773438 168.175781 C 199.6875 168.5 199.621094 168.710938 199.574219 168.90625 C 199.160156 170.878906 198.199219 172.535156 196.691406 173.875 C 195.367188 175.070312 193.859375 175.953125 192.167969 176.519531 C 189.679688 177.402344 187.117188 177.902344 184.480469 178.023438 C 181.84375 178.144531 179.246094 177.882812 176.6875 177.230469 C 172.933594 176.316406 169.765625 174.445312 167.402344 171.324219 C 164.808594 167.90625 163.945312 164.007812 164.113281 159.796875 C 164.109375 159.570312 164.148438 159.351562 164.238281 159.140625 C 164.335938 158.933594 164.5 158.828125 164.730469 158.828125 C 164.960938 158.828125 165.125 158.933594 165.222656 159.140625 C 165.332031 159.421875 165.386719 159.710938 165.382812 160.007812 C 165.425781 160.792969 165.40625 161.585938 165.457031 162.367188 C 165.863281 168.585938 169.621094 173.53125 175.53125 175.535156 C 179.742188 176.953125 184.042969 177.046875 188.382812 176.246094 C 190.628906 175.886719 192.710938 175.089844 194.628906 173.863281 C 196.765625 172.4375 198.125 170.488281 198.40625 167.898438 C 198.683594 165.136719 198.164062 162.53125 196.847656 160.089844 C 196.828125 160.050781 196.71875 160.058594 196.601562 160.035156 C 196.507812 160.164062 196.386719 160.304688 196.296875 160.457031 C 194.246094 163.917969 191.144531 166.128906 187.585938 167.792969 C 187.21875 167.96875 186.796875 168.207031 186.488281 167.761719 C 186.183594 167.316406 186.585938 167.085938 186.800781 166.792969 C 186.832031 166.714844 186.855469 166.632812 186.863281 166.546875 C 182.914062 158.007812 182.0625 149.1875 184.773438 139.832031 Z M 275.339844 213.152344 L 275.074219 212.972656 C 273.738281 214.417969 272.167969 215.527344 270.359375 216.300781 C 268.5 217.03125 266.5625 217.03125 264.675781 216.910156 C 264.605469 216.992188 264.542969 217.082031 264.488281 217.171875 C 264.421875 217.308594 264.367188 217.449219 264.316406 217.589844 C 263.128906 221.363281 260.554688 223.71875 256.8125 224.820312 C 255.402344 225.210938 253.976562 225.53125 252.535156 225.777344 C 251.820312 225.910156 251.332031 226.09375 251.054688 226.875 C 250.46875 228.511719 249.3125 229.734375 247.929688 230.757812 C 244.917969 232.976562 241.511719 233.472656 237.902344 233.070312 C 236.828125 232.953125 235.757812 232.777344 234.710938 232.628906 C 234.074219 233.359375 233.515625 234.121094 232.851562 234.773438 C 230.867188 236.710938 228.429688 237.8125 225.769531 238.460938 C 221.792969 239.425781 217.960938 239.140625 214.382812 237.027344 C 214.089844 236.828125 213.769531 236.71875 213.417969 236.703125 C 213.0625 236.683594 212.730469 236.757812 212.421875 236.921875 C 210.0625 238.015625 207.601562 238.75 205.027344 239.117188 C 200.605469 239.664062 196.449219 238.964844 192.789062 236.242188 C 192.347656 235.898438 191.871094 235.828125 191.351562 236.035156 C 189.296875 236.585938 187.242188 237.226562 185.140625 237.519531 C 181.035156 238.089844 176.984375 237.714844 173.199219 235.863281 C 172.8125 235.636719 172.394531 235.539062 171.949219 235.566406 C 171.503906 235.589844 171.097656 235.738281 170.742188 236.003906 C 166.953125 238.375 162.800781 239.203125 158.375 238.789062 C 155.5625 238.527344 152.941406 237.773438 150.730469 235.902344 C 150.574219 235.785156 150.410156 235.683594 150.234375 235.59375 C 150.167969 235.601562 150.105469 235.617188 150.042969 235.640625 C 149.675781 235.835938 149.308594 236.046875 148.945312 236.234375 C 145.355469 238.117188 141.636719 238.597656 137.785156 237.171875 C 135.285156 236.210938 133.167969 234.714844 131.429688 232.675781 C 131.164062 232.375 130.890625 232.089844 130.628906 231.800781 C 130.023438 232.105469 129.53125 232.359375 129.023438 232.605469 C 127.050781 233.574219 124.972656 233.914062 122.792969 233.625 C 120.402344 233.332031 118.773438 231.929688 117.679688 229.859375 C 116.949219 228.460938 116.613281 226.914062 116.308594 225.371094 C 116.160156 224.609375 115.992188 223.855469 115.839844 223.121094 C 114.972656 223.003906 114.234375 222.902344 113.492188 222.808594 C 111.457031 222.613281 109.660156 221.851562 108.101562 220.527344 C 105.9375 218.628906 104.425781 216.300781 103.570312 213.550781 C 103.359375 212.851562 102.949219 212.296875 102.339844 211.890625 C 100.585938 210.726562 99.003906 209.363281 97.589844 207.804688 C 97.507812 207.710938 97.359375 207.679688 97.113281 207.554688 C 97.136719 207.96875 97.183594 208.378906 97.25 208.785156 C 97.980469 211.996094 98.640625 215.226562 99.472656 218.410156 C 100.421875 222.238281 101.746094 225.933594 103.445312 229.492188 C 104.210938 231.132812 105.210938 232.621094 106.4375 233.953125 C 106.660156 234.136719 106.898438 234.300781 107.144531 234.445312 C 107.089844 233.929688 107.054688 233.601562 107.011719 233.273438 C 106.910156 232.492188 106.785156 231.71875 106.707031 230.9375 C 106.660156 230.53125 106.613281 230.015625 107.15625 229.933594 C 107.804688 229.839844 107.769531 230.4375 107.886719 230.851562 C 107.898438 230.925781 107.90625 231 107.910156 231.074219 C 108.085938 232.171875 108.242188 233.292969 108.445312 234.398438 C 109.269531 238.949219 111.695312 242.296875 115.890625 244.3125 C 117.324219 244.980469 118.824219 245.425781 120.394531 245.640625 C 120.707031 245.691406 121.023438 245.714844 121.417969 245.757812 C 121.160156 244.410156 120.921875 243.199219 120.707031 241.992188 C 120.628906 241.625 120.597656 241.253906 120.613281 240.875 C 120.613281 240.703125 120.84375 240.414062 120.976562 240.414062 C 121.234375 240.40625 121.445312 240.503906 121.601562 240.707031 C 121.726562 241.066406 121.816406 241.429688 121.871094 241.804688 C 122.304688 243.464844 122.636719 245.167969 123.21875 246.777344 C 124.050781 249.074219 125.777344 250.515625 128.121094 251.164062 C 130.265625 251.75 132.445312 251.980469 134.664062 251.851562 C 134.847656 251.816406 135.019531 251.757812 135.183594 251.671875 C 135.140625 251.425781 135.109375 251.242188 135.082031 251.0625 C 134.878906 249.808594 134.660156 248.554688 134.472656 247.300781 C 134.414062 247 134.421875 246.703125 134.5 246.410156 C 134.570312 246.210938 134.832031 245.9375 135 245.941406 C 135.167969 245.945312 135.394531 246.210938 135.519531 246.414062 C 135.605469 246.554688 135.550781 246.78125 135.582031 246.960938 C 135.804688 248.21875 135.984375 249.480469 136.277344 250.714844 C 136.695312 252.464844 137.484375 254.046875 138.949219 255.15625 C 139.847656 255.832031 140.804688 256.40625 141.820312 256.886719 C 144.957031 258.371094 148.3125 258.53125 151.683594 258.347656 C 151.894531 258.304688 152.09375 258.242188 152.289062 258.152344 C 152.289062 257.769531 152.289062 257.402344 152.289062 257.035156 C 152.289062 255.570312 152.269531 254.109375 152.265625 252.644531 C 152.242188 252.382812 152.261719 252.125 152.328125 251.871094 C 152.421875 251.664062 152.574219 251.535156 152.796875 251.488281 C 153.023438 251.5 153.191406 251.609375 153.300781 251.804688 C 153.410156 252.125 153.464844 252.453125 153.464844 252.789062 C 153.503906 254.363281 153.550781 255.9375 153.539062 257.511719 C 153.519531 258.1875 153.773438 258.742188 154.304688 259.164062 C 155.464844 260.210938 156.796875 260.941406 158.300781 261.359375 C 160.386719 261.9375 162.511719 262.144531 164.667969 261.988281 C 165.988281 261.945312 167.273438 261.703125 168.519531 261.253906 C 168.519531 259.585938 168.519531 257.941406 168.519531 256.304688 C 168.519531 255.886719 168.28125 255.410156 168.769531 255.078125 C 169.273438 255.238281 169.21875 255.660156 169.226562 256.007812 C 169.261719 257.285156 169.265625 258.566406 169.289062 259.828125 C 169.289062 260.195312 169.339844 260.535156 169.382812 261.070312 L 172.613281 259.824219 C 172.667969 259.550781 172.71875 259.371094 172.734375 259.1875 C 172.871094 257.582031 173 255.980469 173.128906 254.375 C 173.128906 254.078125 173.167969 253.78125 173.246094 253.496094 C 173.347656 253.285156 173.511719 253.164062 173.742188 253.128906 C 173.902344 253.128906 174.105469 253.34375 174.199219 253.515625 C 174.269531 253.695312 174.292969 253.875 174.265625 254.066406 C 174.214844 255.453125 174.152344 256.835938 174.082031 258.21875 C 174.050781 258.847656 174 259.476562 173.960938 260.046875 C 177.25 262.5 186.671875 262.5 189.582031 260.890625 L 189.582031 259.726562 C 189.582031 258.75 189.582031 257.777344 189.582031 256.800781 C 189.582031 256.433594 189.488281 256.015625 190.175781 255.910156 C 190.542969 257.460938 190.09375 259.070312 190.457031 260.78125 L 193.148438 259.703125 C 193.148438 259.277344 193.148438 258.90625 193.148438 258.539062 C 193.148438 257.375 193.113281 256.214844 193.101562 255.050781 C 193.078125 254.789062 193.101562 254.535156 193.175781 254.28125 C 193.273438 254.078125 193.4375 253.957031 193.65625 253.914062 C 193.882812 253.953125 194.042969 254.074219 194.140625 254.28125 C 194.214844 254.53125 194.246094 254.789062 194.230469 255.050781 C 194.292969 256.433594 194.390625 257.820312 194.394531 259.207031 C 194.382812 259.511719 194.449219 259.792969 194.597656 260.058594 C 194.746094 260.320312 194.953125 260.523438 195.21875 260.671875 C 196.625 261.523438 198.148438 261.976562 199.792969 262.035156 C 203.734375 262.292969 206.929688 260.757812 209.574219 257.910156 C 209.855469 257.585938 209.980469 257.214844 209.941406 256.785156 C 209.941406 255.25 209.941406 253.714844 209.964844 252.179688 C 209.964844 251.378906 210.207031 250.992188 210.601562 251.082031 C 211.214844 251.207031 211.105469 251.734375 211.117188 252.179688 C 211.144531 253.675781 211.15625 255.171875 211.191406 256.671875 C 211.214844 257.800781 211.238281 257.847656 212.285156 258.164062 C 215.054688 258.988281 217.867188 259.1875 220.726562 258.765625 C 222.34375 258.589844 223.871094 258.121094 225.3125 257.363281 C 225.3125 255.742188 225.3125 254.097656 225.3125 252.457031 C 225.3125 251.742188 225.265625 251.03125 225.28125 250.320312 C 225.328125 250.097656 225.414062 249.894531 225.539062 249.707031 L 225.808594 249.707031 C 225.894531 250.039062 225.957031 250.375 225.992188 250.71875 C 226.03125 252.40625 226.042969 254.089844 226.070312 255.777344 C 226.070312 256.09375 226.125 256.414062 226.160156 256.832031 C 227.367188 256.355469 228.171875 255.527344 229.042969 254.78125 C 229.308594 254.570312 229.5 254.304688 229.625 253.988281 C 229.746094 253.671875 229.78125 253.34375 229.730469 253.007812 C 229.5625 251.179688 229.453125 249.351562 229.335938 247.523438 C 229.308594 247.109375 229.335938 246.613281 229.859375 246.554688 C 230.378906 246.496094 230.476562 246.972656 230.515625 247.402344 C 230.515625 247.511719 230.515625 247.625 230.515625 247.738281 C 230.667969 249.640625 230.832031 251.542969 230.980469 253.445312 C 231.019531 253.929688 231.097656 254.308594 231.683594 254.414062 C 234.730469 254.949219 237.6875 254.882812 240.25 252.886719 C 242.589844 251.058594 244.246094 248.75 244.535156 245.671875 C 244.679688 244.105469 244.800781 242.539062 244.9375 240.972656 C 244.933594 240.671875 244.976562 240.378906 245.066406 240.09375 C 245.179688 239.898438 245.351562 239.792969 245.582031 239.78125 C 245.742188 239.78125 245.917969 240.011719 246.023438 240.183594 C 246.078125 240.324219 246.09375 240.46875 246.070312 240.621094 C 246.011719 242.007812 245.972656 243.390625 245.878906 244.773438 C 245.820312 245.6875 245.695312 246.601562 245.582031 247.640625 C 248.175781 247.511719 250.539062 247.125 252.738281 245.972656 C 253.21875 245.71875 253.257812 245.289062 253.292969 244.832031 C 253.445312 243 253.613281 241.171875 253.769531 239.34375 C 253.800781 238.976562 253.730469 238.519531 254.441406 238.378906 C 254.613281 240.488281 254.125 242.527344 254.164062 244.660156 C 254.398438 244.535156 254.527344 244.503906 254.578125 244.429688 C 255.710938 243.054688 256.597656 241.53125 256.875 239.753906 C 257.136719 238.089844 257.285156 236.410156 257.480469 234.734375 C 257.503906 234.550781 257.457031 234.328125 257.539062 234.183594 C 257.625 234.039062 257.84375 233.738281 258.039062 233.699219 C 258.40625 233.628906 258.574219 233.90625 258.59375 234.246094 C 258.617188 234.542969 258.617188 234.84375 258.59375 235.140625 C 258.523438 236.238281 258.421875 237.308594 258.351562 238.390625 C 258.347656 238.699219 258.367188 239.007812 258.40625 239.316406 C 261.1875 238.804688 263.402344 237.589844 264.832031 235.246094 C 265.457031 234.179688 265.945312 233.050781 266.292969 231.863281 C 267.046875 229.304688 267.503906 226.691406 267.667969 224.027344 C 267.691406 223.429688 267.746094 222.832031 267.832031 222.238281 C 267.867188 222.039062 268.128906 221.871094 268.289062 221.699219 C 268.492188 221.875 268.765625 222.023438 268.871094 222.25 C 268.945312 222.503906 268.957031 222.761719 268.90625 223.023438 C 268.839844 224.070312 268.753906 225.113281 268.683594 226.160156 C 268.683594 226.46875 268.683594 226.78125 268.683594 227.226562 C 269.09375 227.023438 269.332031 226.925781 269.546875 226.796875 C 270.679688 226.128906 271.632812 225.261719 272.402344 224.191406 C 273.171875 223.125 273.695312 221.945312 273.972656 220.660156 C 274.523438 218.175781 274.882812 215.65625 275.339844 213.152344 Z M 249.941406 178.234375 C 250.289062 177.929688 250.523438 177.75 250.730469 177.542969 C 252.039062 176.246094 253.214844 174.84375 254.265625 173.332031 C 255.3125 171.820312 256.214844 170.226562 256.972656 168.546875 C 257.726562 166.871094 258.324219 165.140625 258.765625 163.351562 C 259.203125 161.566406 259.476562 159.753906 259.582031 157.917969 C 259.773438 154.984375 259.578125 152.078125 258.988281 149.199219 C 258.398438 146.320312 257.441406 143.570312 256.109375 140.949219 C 249.148438 126.847656 233.613281 118.496094 218.476562 119.796875 C 213.726562 120.199219 209.179688 121.390625 205 123.695312 C 194.925781 129.238281 189.3125 137.765625 188.421875 149.265625 C 188.054688 154.109375 188.949219 158.8125 190.753906 163.328125 C 190.878906 163.609375 191.019531 163.878906 191.171875 164.144531 C 191.449219 163.949219 191.675781 163.816406 191.867188 163.652344 C 193.445312 162.34375 194.699219 160.773438 195.625 158.945312 C 195.742188 158.667969 195.882812 158.402344 196.042969 158.148438 C 196.382812 157.671875 196.773438 157.652344 197.140625 158.089844 C 197.300781 158.296875 197.441406 158.519531 197.558594 158.753906 C 198.355469 160.203125 198.964844 161.730469 199.382812 163.332031 C 199.710938 164.480469 200.101562 165.605469 200.554688 166.710938 C 200.855469 167.390625 201.339844 167.886719 202.015625 168.199219 C 203.277344 168.921875 204.617188 169.117188 206.035156 168.789062 C 207.160156 168.535156 208.199219 168.082031 209.152344 167.429688 C 210.105469 166.777344 210.90625 165.972656 211.550781 165.015625 C 211.765625 164.707031 211.945312 164.375 212.183594 164.089844 C 212.757812 163.402344 213.578125 163.480469 214.011719 164.285156 C 214.203125 164.652344 214.328125 165.042969 214.375 165.453125 C 214.511719 166.714844 214.585938 167.984375 214.691406 169.25 C 214.714844 169.558594 214.746094 169.867188 214.78125 170.296875 C 218.242188 168.21875 221.359375 167.8125 223.792969 171.304688 C 225.398438 170.675781 226.859375 170.007812 228.382812 169.53125 C 229.828125 169.023438 231.257812 169.066406 232.671875 169.660156 C 233.398438 169.980469 234.15625 170.101562 234.945312 170.027344 C 236.839844 169.910156 238.597656 170.335938 240.035156 171.652344 C 240.375 171.988281 240.78125 172.128906 241.253906 172.078125 C 241.664062 172.050781 242.074219 172.058594 242.484375 172.097656 C 245.71875 172.328125 248.070312 173.84375 249.371094 176.851562 C 249.535156 177.265625 249.703125 177.675781 249.941406 178.234375 Z M 129.730469 161.9375 C 129.121094 162.226562 128.53125 162.546875 127.957031 162.902344 C 125.398438 164.710938 122.75 166.4375 120.285156 168.386719 C 117.972656 170.199219 115.914062 172.261719 114.109375 174.574219 C 112.300781 176.890625 110.800781 179.386719 109.601562 182.070312 C 107.445312 186.941406 106.707031 191.992188 108.082031 197.195312 C 111.574219 210.363281 120.050781 218.71875 132.984375 222.664062 C 138.507812 223.832031 144.019531 225.070312 149.554688 226.160156 C 156.25 227.515625 163.007812 228.222656 169.839844 228.28125 C 180.648438 228.300781 191.464844 228.332031 202.265625 227.671875 C 207.125 227.382812 211.976562 227.023438 216.773438 226.210938 C 223.59375 225.046875 230.242188 223.242188 236.71875 220.800781 C 243.195312 218.355469 249.378906 215.316406 255.269531 211.683594 C 257.882812 210.101562 260.210938 208.179688 262.261719 205.914062 C 264.308594 203.648438 265.992188 201.136719 267.304688 198.382812 C 268.214844 196.550781 268.785156 194.621094 269.011719 192.589844 C 269.242188 190.558594 269.117188 188.546875 268.640625 186.5625 C 267.511719 181.550781 264.882812 177.304688 261.421875 173.550781 C 261.253906 173.402344 261.082031 173.265625 260.894531 173.140625 C 260.777344 173.265625 260.667969 173.398438 260.570312 173.539062 C 258.203125 177.519531 255.167969 180.894531 251.464844 183.671875 C 251.269531 183.816406 251.128906 184.003906 251.039062 184.234375 C 250.953125 184.464844 250.9375 184.699219 250.988281 184.941406 C 251.28125 188.863281 250.179688 192.425781 248.09375 195.703125 C 242.933594 203.816406 235.992188 209.699219 226.761719 212.695312 C 219.515625 215.046875 212.046875 216.050781 204.472656 216.320312 C 199.320312 216.503906 194.242188 216.109375 189.28125 214.535156 C 188.550781 214.300781 187.828125 214.320312 187.113281 214.589844 C 183.226562 215.902344 179.238281 216.683594 175.144531 216.929688 C 169.871094 217.210938 164.679688 216.6875 159.570312 215.367188 C 155.496094 214.339844 151.6875 212.707031 148.460938 209.976562 C 147.621094 209.1875 146.628906 208.765625 145.480469 208.710938 C 145.367188 208.710938 145.257812 208.691406 145.144531 208.675781 C 140.636719 208.140625 136.515625 206.578125 132.785156 203.992188 C 127.738281 200.488281 125.011719 195.601562 124.261719 189.566406 C 124.199219 188.851562 123.945312 188.210938 123.503906 187.648438 C 122.570312 186.488281 121.953125 185.179688 121.652344 183.71875 C 120.742188 179.121094 121.5625 174.851562 124.210938 170.984375 C 125.445312 169.261719 126.917969 167.785156 128.632812 166.542969 C 128.945312 166.339844 129.15625 166.0625 129.273438 165.710938 C 129.488281 164.5625 129.582031 163.371094 129.738281 161.945312 Z M 149.847656 209.070312 L 149.777344 209.382812 C 150.101562 209.625 150.425781 209.875 150.761719 210.113281 C 152.527344 211.328125 154.417969 212.300781 156.433594 213.039062 C 159.867188 214.257812 163.402344 215.046875 167.027344 215.414062 C 171.179688 215.910156 175.324219 215.824219 179.453125 215.152344 C 184.941406 214.195312 190.179688 212.46875 195.164062 209.976562 C 203.78125 205.769531 211.695312 200.464844 219.128906 194.417969 C 223.089844 191.203125 226.835938 187.742188 230.011719 183.71875 C 231.527344 181.886719 232.730469 179.871094 233.625 177.667969 C 234.140625 176.394531 234.351562 175.074219 234.253906 173.707031 C 234.113281 172.21875 233.277344 171.121094 231.886719 170.753906 C 231.234375 170.574219 230.570312 170.503906 229.894531 170.542969 C 228.109375 170.707031 226.460938 171.269531 224.945312 172.222656 C 224.703125 172.332031 224.519531 172.503906 224.394531 172.742188 C 224.273438 172.976562 224.234375 173.226562 224.285156 173.488281 C 224.480469 175.316406 223.996094 177.046875 223.207031 178.699219 C 222.164062 180.792969 220.824219 182.675781 219.1875 184.347656 C 215.191406 188.570312 210.398438 191.785156 205.613281 195.003906 C 205.40625 195.167969 205.171875 195.277344 204.910156 195.332031 C 204.65625 195.332031 204.441406 195.238281 204.265625 195.054688 C 204.183594 194.839844 204.210938 194.640625 204.347656 194.457031 C 204.601562 194.179688 204.886719 193.933594 205.203125 193.726562 C 207.011719 192.496094 208.839844 191.246094 210.617188 189.9375 C 213.8125 187.632812 216.871094 185.183594 219.410156 182.125 C 220.699219 180.640625 221.710938 178.988281 222.445312 177.164062 C 222.90625 176.035156 223.097656 174.863281 223.011719 173.648438 C 222.785156 171.105469 220.671875 169.515625 218.195312 170.121094 C 217.332031 170.375 216.515625 170.726562 215.742188 171.179688 C 215.308594 171.414062 214.953125 171.734375 214.675781 172.140625 C 214.398438 172.550781 214.234375 173 214.179688 173.488281 C 213.695312 176.21875 212.699219 178.746094 211.191406 181.066406 C 209.34375 183.949219 207.203125 186.59375 204.761719 188.992188 C 201.796875 191.898438 198.371094 194.179688 194.792969 196.238281 C 189.3125 199.402344 183.507812 201.929688 177.589844 204.1875 C 173.476562 205.824219 169.242188 207.042969 164.886719 207.84375 C 160.300781 208.585938 155.6875 209 151.042969 209.074219 C 150.648438 209.085938 150.253906 209.078125 149.855469 209.078125 Z M 235.011719 171.175781 C 235.246094 172.183594 235.425781 173.203125 235.542969 174.234375 C 235.679688 176.484375 234.832031 178.492188 233.792969 180.421875 C 232.464844 182.78125 230.875 184.953125 229.023438 186.929688 C 225.628906 190.640625 221.929688 194.019531 217.921875 197.0625 C 209.664062 203.441406 200.972656 209.128906 191.285156 213.136719 C 191.066406 213.253906 190.855469 213.390625 190.65625 213.546875 C 191.109375 213.695312 191.414062 213.816406 191.730469 213.910156 C 194.355469 214.539062 197.011719 214.910156 199.707031 215.023438 C 204.011719 215.179688 208.304688 214.972656 212.578125 214.40625 C 217.042969 213.894531 221.429688 212.988281 225.730469 211.6875 C 234.867188 208.863281 241.765625 203.191406 246.882812 195.230469 C 248.285156 193.144531 249.179688 190.863281 249.566406 188.382812 C 250.019531 184.429688 249.476562 180.621094 247.9375 176.957031 C 247.042969 174.863281 245.347656 173.722656 243.117188 173.375 C 242.628906 173.300781 242.132812 173.28125 241.679688 173.242188 C 241.621094 173.425781 241.585938 173.472656 241.597656 173.496094 C 241.671875 173.707031 241.742188 173.921875 241.835938 174.125 C 242.917969 176.480469 243.214844 178.929688 242.726562 181.472656 C 242.257812 184.035156 241.136719 186.378906 240.011719 188.703125 C 239.949219 188.835938 239.882812 189.007812 239.765625 189.070312 C 239.53125 189.203125 239.203125 189.40625 239.011719 189.328125 C 238.816406 189.253906 238.710938 188.859375 238.722656 188.597656 C 238.777344 188.300781 238.878906 188.023438 239.03125 187.765625 C 239.582031 186.496094 240.175781 185.242188 240.675781 183.953125 C 241.386719 182.269531 241.703125 180.511719 241.628906 178.6875 C 241.503906 176.667969 241 174.765625 239.707031 173.15625 C 238.492188 171.648438 236.859375 171.136719 235.011719 171.175781 Z M 189.949219 165.066406 C 189.9375 164.953125 189.914062 164.84375 189.886719 164.734375 C 189.742188 164.367188 189.582031 163.96875 189.4375 163.585938 C 187.5 158.5 186.667969 153.261719 187.246094 147.828125 C 188.234375 138.628906 192.386719 131.152344 199.71875 125.558594 C 207.585938 119.566406 216.585938 117.511719 226.296875 118.695312 C 228.453125 118.941406 230.570312 119.359375 232.652344 119.957031 C 234.738281 120.554688 236.757812 121.316406 238.714844 122.246094 C 240.671875 123.175781 242.542969 124.257812 244.320312 125.496094 C 246.101562 126.734375 247.765625 128.109375 249.316406 129.621094 C 255.894531 135.9375 259.9375 143.621094 260.796875 152.753906 C 261.589844 161.105469 259.464844 168.730469 254.328125 175.429688 C 253.28125 176.789062 252.019531 177.992188 250.882812 179.273438 C 250.613281 179.523438 250.453125 179.832031 250.402344 180.195312 C 250.503906 180.996094 250.652344 181.789062 250.847656 182.570312 C 251.578125 181.96875 252.214844 181.511719 252.777344 180.984375 C 263.121094 171.273438 266.34375 159.492188 262.574219 145.898438 C 260.050781 136.785156 254.535156 129.621094 246.828125 124.265625 C 235.863281 116.640625 223.804688 114.148438 210.757812 117.460938 C 202.785156 119.488281 196.070312 123.679688 191.195312 130.390625 C 183.199219 141.363281 182.5625 153.167969 187.816406 165.484375 C 187.941406 165.714844 188.089844 165.929688 188.253906 166.132812 C 188.640625 165.917969 188.984375 165.769531 189.289062 165.554688 C 189.511719 165.394531 189.707031 165.226562 189.949219 165.066406 Z M 189.949219 165.066406 " fill-opacity="1" fill-rule="nonzero"/></g><path fill="#000000" d="M 174.492188 186.308594 C 174.679688 186.210938 174.875 186.140625 175.082031 186.101562 C 181.777344 185.734375 187.808594 183.351562 193.535156 180.039062 C 193.824219 179.871094 194.128906 179.734375 194.449219 179.628906 C 194.542969 179.597656 194.691406 179.730469 194.847656 179.800781 C 194.65625 180.535156 194.015625 180.683594 193.53125 180.960938 C 187.855469 184.222656 181.855469 186.484375 175.261719 186.8125 C 174.996094 186.792969 174.742188 186.734375 174.492188 186.644531 Z M 174.492188 186.308594 " fill-opacity="1" fill-rule="nonzero"/><path fill="#000000" d="M 166.230469 155.117188 C 166.179688 154.925781 166.046875 154.710938 166.09375 154.542969 C 166.214844 154.113281 166.371094 153.699219 166.566406 153.296875 C 167.601562 151.101562 169.09375 149.273438 170.730469 147.519531 C 171.046875 147.179688 171.066406 147.191406 171.855469 147.25 C 171.628906 147.59375 171.382812 147.925781 171.125 148.242188 C 169.605469 149.894531 168.199219 151.613281 167.199219 153.648438 C 166.960938 154.136719 166.742188 154.640625 166.515625 155.132812 Z M 166.230469 155.117188 " fill-opacity="1" fill-rule="nonzero"/><path fill="#000000" d="M 153.144531 243.359375 C 152.871094 242.128906 152.441406 241.035156 152.496094 239.671875 C 152.78125 239.847656 153.023438 239.914062 153.042969 240.039062 C 153.253906 241.046875 153.410156 242.066406 153.589844 243.082031 C 153.601562 243.121094 153.378906 243.210938 153.144531 243.359375 Z M 153.144531 243.359375 " fill-opacity="1" fill-rule="nonzero"/><path fill="#000000" d="M 149.34375 239.347656 C 148.789062 240.507812 148.15625 241.625 147.445312 242.699219 C 146.921875 241.730469 147.5625 241.195312 147.847656 240.660156 C 148.132812 240.125 148.183594 239.328125 149.34375 239.347656 Z M 149.34375 239.347656 " fill-opacity="1" fill-rule="nonzero"/><path fill="#000000" d="M 150.914062 240.234375 C 151.335938 240.992188 151.28125 242.230469 150.863281 242.765625 C 150.300781 242.042969 150.296875 241.1875 150.914062 240.234375 Z M 150.914062 240.234375 " fill-opacity="1" fill-rule="nonzero"/><path fill="#000000" d="M 234.152344 136.300781 C 233.882812 136.640625 233.683594 136.933594 233.453125 137.195312 C 231.566406 139.339844 229.941406 141.664062 228.570312 144.167969 C 227.761719 145.574219 227.191406 147.070312 226.863281 148.660156 C 226.75 149.246094 226.710938 149.839844 226.746094 150.4375 C 226.832031 151.554688 227.507812 152.160156 228.621094 152.035156 C 229.4375 151.925781 230.230469 151.726562 230.996094 151.429688 C 233.136719 150.597656 235.128906 149.5 236.976562 148.136719 C 238.890625 146.769531 240.722656 145.289062 242.601562 143.867188 C 242.9375 143.617188 243.332031 143.425781 243.699219 143.183594 C 244.035156 143.859375 243.601562 144.074219 243.308594 144.308594 C 241.722656 145.558594 240.1875 146.867188 238.515625 148.011719 C 236.5625 149.324219 234.546875 150.53125 232.46875 151.636719 C 231.394531 152.171875 230.269531 152.546875 229.089844 152.761719 C 227.183594 153.160156 225.964844 152.117188 225.898438 150.167969 C 225.890625 148.84375 226.144531 147.566406 226.667969 146.347656 C 228.128906 142.636719 230.421875 139.472656 233.066406 136.53125 C 233.300781 136.3125 233.503906 135.96875 234.152344 136.300781 Z M 234.152344 136.300781 " fill-opacity="1" fill-rule="nonzero"/><path fill="#000000" d="M 206.394531 136.582031 C 206.917969 136.628906 206.960938 137.113281 207.164062 137.433594 C 208.625 139.785156 210.003906 142.1875 211.546875 144.480469 C 212.351562 145.609375 213.261719 146.644531 214.289062 147.582031 C 214.921875 148.171875 215.636719 148.636719 216.433594 148.972656 C 218.140625 149.707031 219.285156 149.050781 219.355469 147.203125 C 219.417969 145.894531 219.320312 144.59375 219.070312 143.304688 C 218.5625 140.816406 217.894531 138.359375 217.289062 135.890625 C 217.183594 135.574219 217.101562 135.25 217.039062 134.917969 C 217.007812 134.714844 217.085938 134.582031 217.28125 134.511719 C 217.472656 134.445312 217.621094 134.5 217.71875 134.679688 C 217.835938 134.875 217.914062 135.082031 217.960938 135.304688 C 218.863281 138.46875 219.761719 141.640625 220.121094 144.925781 C 220.238281 145.855469 220.230469 146.785156 220.097656 147.710938 C 219.777344 149.707031 218.394531 150.515625 216.492188 149.851562 C 215.707031 149.585938 214.996094 149.191406 214.355469 148.667969 C 213.351562 147.824219 212.429688 146.894531 211.597656 145.882812 C 209.546875 143.34375 207.945312 140.5 206.457031 137.605469 C 206.28125 137.308594 205.988281 136.972656 206.394531 136.582031 Z M 206.394531 136.582031 " fill-opacity="1" fill-rule="nonzero"/><path fill="#000000" d="M 196.207031 153.636719 C 196.574219 153.773438 196.9375 153.898438 197.277344 154.046875 C 199.453125 154.9375 201.597656 155.914062 203.8125 156.707031 C 204.914062 157.066406 206.046875 157.261719 207.207031 157.285156 C 208.773438 157.351562 209.316406 156.554688 208.777344 155.050781 C 208.53125 154.339844 208.1875 153.679688 207.742188 153.070312 C 206.710938 151.699219 205.621094 150.367188 204.492188 149.074219 C 203.582031 148.03125 202.585938 147.070312 201.632812 146.066406 C 201.375 145.796875 201.09375 145.5 201.632812 145.117188 C 201.851562 145.242188 202.054688 145.386719 202.246094 145.554688 C 203.949219 147.382812 205.675781 149.210938 207.316406 151.09375 C 208.003906 151.9375 208.601562 152.839844 209.109375 153.800781 C 209.40625 154.324219 209.601562 154.886719 209.699219 155.480469 C 209.953125 157.074219 209.195312 158.058594 207.585938 158.078125 C 206.503906 158.09375 205.433594 157.972656 204.382812 157.710938 C 201.65625 157.011719 199.132812 155.777344 196.628906 154.511719 C 196.40625 154.363281 196.203125 154.191406 196.019531 153.996094 Z M 196.207031 153.636719 " fill-opacity="1" fill-rule="nonzero"/><path fill="#000000" d="M 244.875 163.335938 C 244.667969 163.960938 244.292969 163.886719 243.972656 163.878906 C 241.285156 163.816406 238.589844 163.769531 235.902344 163.652344 C 235.113281 163.609375 234.347656 163.453125 233.605469 163.1875 C 232.570312 162.820312 232.210938 161.9375 232.65625 160.921875 C 232.902344 160.332031 233.25 159.808594 233.703125 159.351562 C 234.441406 158.609375 235.261719 157.964844 236.160156 157.421875 C 238.609375 156.054688 241.113281 154.785156 243.605469 153.503906 C 243.972656 153.320312 244.378906 152.984375 244.851562 153.355469 C 244.902344 153.832031 244.488281 153.863281 244.21875 154.007812 C 241.90625 155.230469 239.570312 156.414062 237.273438 157.6875 C 236.335938 158.234375 235.453125 158.855469 234.617188 159.550781 C 234.191406 159.921875 233.835938 160.351562 233.554688 160.84375 C 233.015625 161.742188 233.257812 162.304688 234.285156 162.597656 C 234.828125 162.75 235.378906 162.835938 235.941406 162.855469 C 237.550781 162.914062 239.15625 162.902344 240.765625 162.941406 C 241.886719 162.96875 243.003906 163.027344 244.125 163.101562 C 244.382812 163.152344 244.632812 163.230469 244.875 163.335938 Z M 244.875 163.335938 " fill-opacity="1" fill-rule="nonzero"/><path fill="#000000" d="M 256.128906 164.453125 C 255.425781 163.988281 255.746094 163.5625 255.816406 163.199219 C 256.105469 161.65625 256.453125 160.125 256.738281 158.582031 C 257.21875 155.9375 257.195312 153.296875 256.671875 150.664062 C 256.609375 150.328125 256.335938 149.933594 256.949219 149.59375 C 257.097656 149.824219 257.21875 150.070312 257.3125 150.328125 C 257.886719 152.796875 258.007812 155.285156 257.679688 157.800781 C 257.472656 159.628906 257.019531 161.402344 256.648438 163.195312 C 256.507812 163.625 256.335938 164.046875 256.128906 164.453125 Z M 256.128906 164.453125 " fill-opacity="1" fill-rule="nonzero"/><path fill="#000000" d="M 250.882812 173.554688 C 250.882812 173.402344 250.8125 173.226562 250.882812 173.132812 C 252.152344 171.023438 253.4375 168.925781 254.734375 166.832031 C 254.789062 166.742188 254.988281 166.738281 255.316406 166.632812 C 255.019531 168.355469 254.023438 169.558594 253.253906 170.871094 C 251.957031 173.050781 251.652344 173.332031 250.882812 173.554688 Z M 250.882812 173.554688 " fill-opacity="1" fill-rule="nonzero"/><path fill="#000000" d="M 219.214844 162.183594 C 219.972656 162.613281 220.925781 165.109375 220.820312 166.164062 C 220.621094 166.03125 220.378906 165.957031 220.320312 165.816406 C 219.835938 164.640625 219.269531 163.492188 219.214844 162.183594 Z M 219.214844 162.183594 " fill-opacity="1" fill-rule="nonzero"/><path fill="#000000" d="M 223.195312 162.328125 C 223.683594 163.167969 223.402344 165.5625 222.738281 166.464844 C 222.636719 166.179688 222.574219 165.886719 222.554688 165.585938 C 222.695312 164.488281 222.644531 163.34375 223.195312 162.328125 Z M 223.195312 162.328125 " fill-opacity="1" fill-rule="nonzero"/><path fill="#000000" d="M 138.226562 221.023438 C 137.941406 221.074219 137.652344 221.085938 137.363281 221.054688 C 131.828125 219.402344 126.347656 217.640625 121.835938 213.785156 C 119.070312 211.425781 117.660156 210.003906 117.289062 208.980469 C 117.5 208.972656 117.707031 209.007812 117.910156 209.078125 C 118.144531 209.265625 118.355469 209.472656 118.546875 209.703125 C 120.53125 211.84375 122.757812 213.691406 125.226562 215.242188 C 127.695312 216.796875 130.320312 218.007812 133.105469 218.875 C 134.496094 219.300781 135.878906 219.765625 137.261719 220.222656 C 137.628906 220.34375 138.085938 220.363281 138.226562 221.023438 Z M 138.226562 221.023438 " fill-opacity="1" fill-rule="nonzero"/><path fill="#000000" d="M 159.898438 223.949219 C 158.691406 224.363281 148.015625 223.273438 143.539062 222.308594 C 143.269531 222.214844 143.011719 222.09375 142.769531 221.941406 C 143.136719 221.367188 143.585938 221.578125 143.957031 221.613281 C 146.148438 221.898438 148.316406 222.242188 150.503906 222.5 C 153.171875 222.8125 155.847656 223.058594 158.523438 223.335938 C 158.859375 223.347656 159.1875 223.394531 159.515625 223.476562 C 159.664062 223.554688 159.761719 223.789062 159.898438 223.949219 Z M 159.898438 223.949219 " fill-opacity="1" fill-rule="nonzero"/><path fill="#000000" d="M 258.898438 190.34375 C 259.714844 191.84375 260.242188 193.460938 261 194.976562 C 261.082031 195.128906 261 195.367188 260.976562 195.605469 C 260.21875 195.238281 259.46875 193.832031 258.671875 191.382812 C 258.578125 191.054688 258.285156 190.691406 258.898438 190.34375 Z M 258.898438 190.34375 " fill-opacity="1" fill-rule="nonzero"/><path fill="#000000" d="M 262.140625 190.273438 C 262.261719 190.4375 262.410156 190.550781 262.414062 190.664062 C 262.441406 192.160156 262.453125 193.65625 262.445312 195.15625 C 262.445312 195.3125 262.3125 195.472656 262.1875 195.753906 C 261.988281 195.515625 261.753906 195.363281 261.757812 195.214844 C 261.757812 193.648438 261.824219 192.082031 261.875 190.519531 C 261.878906 190.46875 261.976562 190.421875 262.140625 190.273438 Z M 262.140625 190.273438 " fill-opacity="1" fill-rule="nonzero"/><path fill="#000000" d="M 265.023438 190.359375 C 265.359375 191.707031 265.226562 193.007812 264.632812 194.261719 C 264.539062 194.089844 264.359375 193.914062 264.367188 193.753906 C 264.46875 192.609375 264.417969 191.433594 265.023438 190.359375 Z M 265.023438 190.359375 " fill-opacity="1" fill-rule="nonzero"/><path fill="#000000" d="M 246.371094 220.691406 C 245.9375 220.957031 245.613281 221.1875 245.273438 221.367188 C 236.871094 225.59375 228.007812 228.464844 218.644531 229.617188 C 214.867188 230.078125 211.070312 230.375 207.28125 230.75 C 206.914062 230.785156 206.550781 230.867188 206.164062 230.867188 C 205.859375 230.847656 205.558594 230.808594 205.257812 230.742188 C 205.339844 230.089844 205.738281 230.171875 206.046875 230.140625 C 207.945312 229.976562 209.84375 229.835938 211.742188 229.65625 C 219.835938 228.898438 227.820312 227.613281 235.464844 224.707031 C 238.710938 223.472656 241.851562 221.972656 245.046875 220.609375 C 245.398438 220.449219 245.785156 220.015625 246.371094 220.691406 Z M 246.371094 220.691406 " fill-opacity="1" fill-rule="nonzero"/><path fill="#000000" d="M 248.375 220 C 248.425781 219.113281 248.929688 219.015625 249.292969 218.8125 C 251.019531 217.84375 252.753906 216.875 254.5 215.9375 C 261.289062 212.28125 266.105469 206.714844 269.984375 200.210938 C 270.164062 199.90625 270.351562 199.609375 270.683594 199.113281 C 270.8125 199.539062 270.957031 199.75 270.90625 199.898438 C 270.78125 200.253906 270.621094 200.589844 270.421875 200.910156 C 266.578125 207.453125 261.703125 212.976562 254.929688 216.636719 C 253.152344 217.59375 251.390625 218.585938 249.613281 219.542969 C 249.210938 219.722656 248.796875 219.875 248.375 220 Z M 248.375 220 " fill-opacity="1" fill-rule="nonzero"/><path fill="#000000" d="M 202.050781 197.824219 C 201.066406 199.753906 188.675781 207.375 183.726562 209.164062 C 183.429688 209.269531 183.113281 209.511719 182.820312 209.03125 C 182.898438 208.929688 182.957031 208.765625 183.066406 208.71875 C 189.757812 205.902344 195.707031 201.820312 201.652344 197.746094 C 201.710938 197.683594 201.855469 197.769531 202.050781 197.824219 Z M 202.050781 197.824219 " fill-opacity="1" fill-rule="nonzero"/><path fill="#000000" d="M 236.609375 193.902344 C 236.097656 195.761719 230.980469 200.757812 226.488281 203.839844 C 225.800781 204.3125 225.199219 205.035156 223.988281 205.101562 C 224.148438 204.820312 224.335938 204.5625 224.550781 204.324219 C 225.023438 203.960938 225.523438 203.632812 226.011719 203.289062 C 229.488281 200.855469 232.585938 198.007812 235.304688 194.75 C 235.476562 194.503906 235.675781 194.285156 235.898438 194.085938 C 236.125 193.980469 236.363281 193.921875 236.609375 193.902344 Z M 236.609375 193.902344 " fill-opacity="1" fill-rule="nonzero"/><g fill="#000000" fill-opacity="1"><g transform="translate(27.252799, 200.066152)"><g><path d="M 12.578125 -4 L 11.875 0 L 0.09375 0 L 0.21875 -0.640625 L 1.59375 -0.78125 C 1.78125 -0.800781 1.910156 -0.832031 1.984375 -0.875 C 2.066406 -0.914062 2.132812 -1.015625 2.1875 -1.171875 C 2.238281 -1.328125 2.296875 -1.597656 2.359375 -1.984375 L 4.59375 -14.71875 C 4.695312 -15.289062 4.726562 -15.625 4.6875 -15.71875 C 4.65625 -15.820312 4.519531 -15.890625 4.28125 -15.921875 L 2.921875 -16.046875 L 3.046875 -16.71875 L 14.53125 -16.71875 L 13.8125 -12.703125 L 13.171875 -12.703125 L 12.921875 -15.28125 C 12.910156 -15.476562 12.882812 -15.625 12.84375 -15.71875 C 12.800781 -15.8125 12.703125 -15.867188 12.546875 -15.890625 C 12.390625 -15.910156 12.113281 -15.921875 11.71875 -15.921875 L 6.953125 -15.921875 L 5.703125 -8.828125 L 9 -8.828125 C 9.382812 -8.828125 9.660156 -8.835938 9.828125 -8.859375 C 9.992188 -8.878906 10.117188 -8.9375 10.203125 -9.03125 C 10.285156 -9.125 10.367188 -9.269531 10.453125 -9.46875 L 11.234375 -11.3125 L 11.84375 -11.3125 L 10.84375 -5.546875 L 10.21875 -5.546875 L 10.078125 -7.390625 C 10.054688 -7.691406 9.988281 -7.875 9.875 -7.9375 C 9.757812 -8 9.414062 -8.03125 8.84375 -8.03125 L 5.546875 -8.03125 L 4.28125 -0.78125 L 9.34375 -0.78125 C 9.726562 -0.78125 10.003906 -0.789062 10.171875 -0.8125 C 10.335938 -0.84375 10.460938 -0.898438 10.546875 -0.984375 C 10.628906 -1.078125 10.710938 -1.222656 10.796875 -1.421875 L 11.9375 -4 Z M 12.578125 -4 "/></g></g></g><g fill="#000000" fill-opacity="1"><g transform="translate(41.510861, 200.066152)"><g><path d="M 5.875 0.25 C 5.007812 0.25 4.191406 0.117188 3.421875 -0.140625 C 2.648438 -0.410156 2.019531 -0.867188 1.53125 -1.515625 C 1.050781 -2.171875 0.800781 -3.078125 0.78125 -4.234375 L 2.328125 -4.71875 C 2.285156 -3.625 2.414062 -2.769531 2.71875 -2.15625 C 3.03125 -1.550781 3.460938 -1.128906 4.015625 -0.890625 C 4.578125 -0.660156 5.207031 -0.546875 5.90625 -0.546875 C 7.25 -0.546875 8.265625 -0.851562 8.953125 -1.46875 C 9.648438 -2.082031 10 -2.910156 10 -3.953125 C 10 -4.710938 9.796875 -5.335938 9.390625 -5.828125 C 8.992188 -6.316406 8.3125 -6.757812 7.34375 -7.15625 L 5.53125 -7.859375 C 4.550781 -8.253906 3.789062 -8.800781 3.25 -9.5 C 2.71875 -10.207031 2.453125 -11.085938 2.453125 -12.140625 C 2.453125 -13.003906 2.648438 -13.800781 3.046875 -14.53125 C 3.453125 -15.257812 4.066406 -15.84375 4.890625 -16.28125 C 5.710938 -16.726562 6.742188 -16.953125 7.984375 -16.953125 C 9.003906 -16.953125 9.851562 -16.800781 10.53125 -16.5 C 11.207031 -16.195312 11.734375 -15.796875 12.109375 -15.296875 C 12.492188 -14.796875 12.722656 -14.242188 12.796875 -13.640625 C 12.878906 -13.046875 12.828125 -12.457031 12.640625 -11.875 L 10.5 -11.421875 C 10.957031 -12.921875 10.972656 -14.085938 10.546875 -14.921875 C 10.117188 -15.753906 9.234375 -16.171875 7.890625 -16.171875 C 6.828125 -16.171875 5.972656 -15.894531 5.328125 -15.34375 C 4.691406 -14.800781 4.375 -13.976562 4.375 -12.875 C 4.375 -12.132812 4.554688 -11.515625 4.921875 -11.015625 C 5.296875 -10.523438 5.957031 -10.085938 6.90625 -9.703125 L 8.71875 -8.96875 C 9.757812 -8.5625 10.554688 -8.023438 11.109375 -7.359375 C 11.660156 -6.691406 11.9375 -5.851562 11.9375 -4.84375 C 11.9375 -3.976562 11.71875 -3.15625 11.28125 -2.375 C 10.851562 -1.59375 10.1875 -0.957031 9.28125 -0.46875 C 8.382812 0.0078125 7.25 0.25 5.875 0.25 Z M 5.875 0.25 "/></g></g></g><g fill="#000000" fill-opacity="1"><g transform="translate(54.982262, 200.066152)"><g><path d="M 1.46875 -12.703125 L 2.1875 -16.71875 L 15.265625 -16.71875 L 14.578125 -12.703125 L 13.90625 -12.703125 L 13.671875 -15.28125 C 13.648438 -15.582031 13.585938 -15.765625 13.484375 -15.828125 C 13.378906 -15.890625 13.039062 -15.921875 12.46875 -15.921875 L 9.65625 -15.921875 L 7.203125 -1.984375 C 7.097656 -1.410156 7.0625 -1.070312 7.09375 -0.96875 C 7.132812 -0.875 7.273438 -0.8125 7.515625 -0.78125 L 8.84375 -0.640625 L 8.75 0 L 2.828125 0 L 2.921875 -0.640625 L 4.296875 -0.78125 C 4.484375 -0.800781 4.613281 -0.832031 4.6875 -0.875 C 4.769531 -0.914062 4.835938 -1.015625 4.890625 -1.171875 C 4.941406 -1.328125 5 -1.597656 5.0625 -1.984375 L 7.515625 -15.921875 L 4.71875 -15.921875 C 4.34375 -15.921875 4.066406 -15.910156 3.890625 -15.890625 C 3.722656 -15.867188 3.601562 -15.8125 3.53125 -15.71875 C 3.457031 -15.625 3.378906 -15.476562 3.296875 -15.28125 L 2.109375 -12.703125 Z M 1.46875 -12.703125 "/></g></g></g><g fill="#000000" fill-opacity="1"><g transform="translate(68.724074, 200.066152)"><g><path d="M 0.890625 -0.984375 C 0.890625 -1.410156 1.023438 -1.769531 1.296875 -2.0625 C 1.578125 -2.351562 1.945312 -2.5 2.40625 -2.5 C 2.8125 -2.5 3.128906 -2.394531 3.359375 -2.1875 C 3.597656 -1.976562 3.71875 -1.675781 3.71875 -1.28125 C 3.71875 -0.851562 3.582031 -0.488281 3.3125 -0.1875 C 3.039062 0.101562 2.664062 0.25 2.1875 0.25 C 1.789062 0.25 1.472656 0.144531 1.234375 -0.0625 C 1.003906 -0.28125 0.890625 -0.585938 0.890625 -0.984375 Z M 0.890625 -0.984375 "/></g></g></g><g fill="#000000" fill-opacity="1"><g transform="translate(296.64679, 200.066152)"><g><path d="M 11.1875 -5.0625 L 10.296875 0 L 0.421875 0 L 0.65625 -1.296875 C 0.875 -2.484375 1.253906 -3.457031 1.796875 -4.21875 C 2.335938 -4.988281 2.972656 -5.644531 3.703125 -6.1875 C 4.429688 -6.726562 5.179688 -7.226562 5.953125 -7.6875 C 6.679688 -8.132812 7.378906 -8.59375 8.046875 -9.0625 C 8.710938 -9.539062 9.253906 -10.125 9.671875 -10.8125 C 10.085938 -11.5 10.296875 -12.367188 10.296875 -13.421875 C 10.296875 -14.398438 10.101562 -15.101562 9.71875 -15.53125 C 9.332031 -15.957031 8.738281 -16.171875 7.9375 -16.171875 C 6.851562 -16.171875 6.03125 -15.765625 5.46875 -14.953125 C 4.914062 -14.140625 4.582031 -12.984375 4.46875 -11.484375 L 2.40625 -11.875 C 2.40625 -12.789062 2.613281 -13.632812 3.03125 -14.40625 C 3.445312 -15.175781 4.066406 -15.789062 4.890625 -16.25 C 5.722656 -16.71875 6.738281 -16.953125 7.9375 -16.953125 C 9.03125 -16.953125 9.914062 -16.769531 10.59375 -16.40625 C 11.28125 -16.050781 11.785156 -15.570312 12.109375 -14.96875 C 12.441406 -14.363281 12.609375 -13.679688 12.609375 -12.921875 C 12.609375 -11.992188 12.421875 -11.21875 12.046875 -10.59375 C 11.671875 -9.96875 11.164062 -9.4375 10.53125 -9 C 9.894531 -8.570312 9.203125 -8.179688 8.453125 -7.828125 C 7.703125 -7.472656 6.945312 -7.109375 6.1875 -6.734375 C 5.175781 -6.222656 4.253906 -5.59375 3.421875 -4.84375 C 2.597656 -4.09375 2.023438 -3.09375 1.703125 -1.84375 L 7.9375 -1.84375 C 8.332031 -1.84375 8.609375 -1.851562 8.765625 -1.875 C 8.929688 -1.90625 9.054688 -1.96875 9.140625 -2.0625 C 9.222656 -2.164062 9.304688 -2.304688 9.390625 -2.484375 L 10.546875 -5.0625 Z M 11.1875 -5.0625 "/></g></g></g><g fill="#000000" fill-opacity="1"><g transform="translate(309.89694, 200.066152)"><g><path d="M 13.734375 -9 L 13.46875 -7.390625 C 13.039062 -4.921875 12.269531 -3.03125 11.15625 -1.71875 C 10.039062 -0.40625 8.59375 0.25 6.8125 0.25 C 5.550781 0.25 4.519531 -0.0820312 3.71875 -0.75 C 2.925781 -1.414062 2.394531 -2.34375 2.125 -3.53125 C 1.851562 -4.726562 1.859375 -6.128906 2.140625 -7.734375 L 2.40625 -9.34375 C 2.832031 -11.78125 3.601562 -13.65625 4.71875 -14.96875 C 5.832031 -16.289062 7.28125 -16.953125 9.0625 -16.953125 C 10.332031 -16.953125 11.359375 -16.617188 12.140625 -15.953125 C 12.929688 -15.296875 13.460938 -14.367188 13.734375 -13.171875 C 14.015625 -11.972656 14.015625 -10.582031 13.734375 -9 Z M 11.625 -10.296875 C 11.96875 -12.316406 11.90625 -13.800781 11.4375 -14.75 C 10.96875 -15.695312 10.175781 -16.171875 9.0625 -16.171875 C 7.988281 -16.171875 7.125 -15.722656 6.46875 -14.828125 C 5.8125 -13.941406 5.300781 -12.488281 4.9375 -10.46875 L 4.25 -6.421875 C 3.90625 -4.421875 3.96875 -2.941406 4.4375 -1.984375 C 4.90625 -1.023438 5.6875 -0.546875 6.78125 -0.546875 C 7.882812 -0.546875 8.757812 -0.988281 9.40625 -1.875 C 10.0625 -2.769531 10.570312 -4.226562 10.9375 -6.25 Z M 11.625 -10.296875 "/></g></g></g><g fill="#000000" fill-opacity="1"><g transform="translate(324.990803, 200.066152)"><g><path d="M 11.1875 -5.0625 L 10.296875 0 L 0.421875 0 L 0.65625 -1.296875 C 0.875 -2.484375 1.253906 -3.457031 1.796875 -4.21875 C 2.335938 -4.988281 2.972656 -5.644531 3.703125 -6.1875 C 4.429688 -6.726562 5.179688 -7.226562 5.953125 -7.6875 C 6.679688 -8.132812 7.378906 -8.59375 8.046875 -9.0625 C 8.710938 -9.539062 9.253906 -10.125 9.671875 -10.8125 C 10.085938 -11.5 10.296875 -12.367188 10.296875 -13.421875 C 10.296875 -14.398438 10.101562 -15.101562 9.71875 -15.53125 C 9.332031 -15.957031 8.738281 -16.171875 7.9375 -16.171875 C 6.851562 -16.171875 6.03125 -15.765625 5.46875 -14.953125 C 4.914062 -14.140625 4.582031 -12.984375 4.46875 -11.484375 L 2.40625 -11.875 C 2.40625 -12.789062 2.613281 -13.632812 3.03125 -14.40625 C 3.445312 -15.175781 4.066406 -15.789062 4.890625 -16.25 C 5.722656 -16.71875 6.738281 -16.953125 7.9375 -16.953125 C 9.03125 -16.953125 9.914062 -16.769531 10.59375 -16.40625 C 11.28125 -16.050781 11.785156 -15.570312 12.109375 -14.96875 C 12.441406 -14.363281 12.609375 -13.679688 12.609375 -12.921875 C 12.609375 -11.992188 12.421875 -11.21875 12.046875 -10.59375 C 11.671875 -9.96875 11.164062 -9.4375 10.53125 -9 C 9.894531 -8.570312 9.203125 -8.179688 8.453125 -7.828125 C 7.703125 -7.472656 6.945312 -7.109375 6.1875 -6.734375 C 5.175781 -6.222656 4.253906 -5.59375 3.421875 -4.84375 C 2.597656 -4.09375 2.023438 -3.09375 1.703125 -1.84375 L 7.9375 -1.84375 C 8.332031 -1.84375 8.609375 -1.851562 8.765625 -1.875 C 8.929688 -1.90625 9.054688 -1.96875 9.140625 -2.0625 C 9.222656 -2.164062 9.304688 -2.304688 9.390625 -2.484375 L 10.546875 -5.0625 Z M 11.1875 -5.0625 "/></g></g></g><g fill="#000000" fill-opacity="1"><g transform="translate(338.240954, 200.066152)"><g><path d="M 11.1875 -5.0625 L 10.296875 0 L 0.421875 0 L 0.65625 -1.296875 C 0.875 -2.484375 1.253906 -3.457031 1.796875 -4.21875 C 2.335938 -4.988281 2.972656 -5.644531 3.703125 -6.1875 C 4.429688 -6.726562 5.179688 -7.226562 5.953125 -7.6875 C 6.679688 -8.132812 7.378906 -8.59375 8.046875 -9.0625 C 8.710938 -9.539062 9.253906 -10.125 9.671875 -10.8125 C 10.085938 -11.5 10.296875 -12.367188 10.296875 -13.421875 C 10.296875 -14.398438 10.101562 -15.101562 9.71875 -15.53125 C 9.332031 -15.957031 8.738281 -16.171875 7.9375 -16.171875 C 6.851562 -16.171875 6.03125 -15.765625 5.46875 -14.953125 C 4.914062 -14.140625 4.582031 -12.984375 4.46875 -11.484375 L 2.40625 -11.875 C 2.40625 -12.789062 2.613281 -13.632812 3.03125 -14.40625 C 3.445312 -15.175781 4.066406 -15.789062 4.890625 -16.25 C 5.722656 -16.71875 6.738281 -16.953125 7.9375 -16.953125 C 9.03125 -16.953125 9.914062 -16.769531 10.59375 -16.40625 C 11.28125 -16.050781 11.785156 -15.570312 12.109375 -14.96875 C 12.441406 -14.363281 12.609375 -13.679688 12.609375 -12.921875 C 12.609375 -11.992188 12.421875 -11.21875 12.046875 -10.59375 C 11.671875 -9.96875 11.164062 -9.4375 10.53125 -9 C 9.894531 -8.570312 9.203125 -8.179688 8.453125 -7.828125 C 7.703125 -7.472656 6.945312 -7.109375 6.1875 -6.734375 C 5.175781 -6.222656 4.253906 -5.59375 3.421875 -4.84375 C 2.597656 -4.09375 2.023438 -3.09375 1.703125 -1.84375 L 7.9375 -1.84375 C 8.332031 -1.84375 8.609375 -1.851562 8.765625 -1.875 C 8.929688 -1.90625 9.054688 -1.96875 9.140625 -2.0625 C 9.222656 -2.164062 9.304688 -2.304688 9.390625 -2.484375 L 10.546875 -5.0625 Z M 11.1875 -5.0625 "/></g></g></g><g fill="#000000" fill-opacity="1"><g transform="translate(75.43231, 157.591224)"><g><path d="M -10.335938 -30.480469 L -16.390625 -23.191406 L -19.402344 -19.539062 C -19.402344 -19.539062 -19.371094 -19.511719 -19.371094 -19.511719 L -20.519531 -18.125 L -19.460938 -17.253906 C -19.429688 -17.226562 -19.429688 -17.226562 -19.429688 -17.226562 C -18.808594 -17.984375 -17.707031 -18.089844 -16.949219 -17.464844 L -0.699219 -4.074219 C 0.0546875 -3.453125 0.164062 -2.351562 -0.460938 -1.597656 C -0.460938 -1.597656 -0.460938 -1.597656 -0.429688 -1.570312 L 0.628906 -0.699219 L 1.773438 -2.089844 L 4.785156 -5.746094 L 5.929688 -7.132812 C 5.929688 -7.132812 5.953125 -7.164062 5.953125 -7.164062 L 4.898438 -8.035156 C 4.867188 -8.0625 4.84375 -8.03125 4.84375 -8.03125 C 4.21875 -7.273438 3.117188 -7.167969 2.363281 -7.792969 L -0.71875 -10.328125 L 5.28125 -17.609375 C 8.8125 -21.898438 8.199219 -28.292969 3.878906 -31.851562 C -0.410156 -35.386719 -6.804688 -34.769531 -10.335938 -30.480469 Z M 4.191406 -18.507812 L -1.804688 -11.226562 L -13.890625 -21.183594 C -14.554688 -21.730469 -15.417969 -21.730469 -16.070312 -21.304688 L -15.273438 -22.273438 L -9.25 -29.582031 C -7.410156 -31.816406 -2.871094 -31.171875 0.816406 -28.136719 C 4.53125 -25.074219 6.035156 -20.742188 4.191406 -18.507812 Z M 4.191406 -18.507812 "/></g></g></g><g fill="#000000" fill-opacity="1"><g transform="translate(93.182709, 135.892115)"><g><path d="M 0.761719 -0.550781 L 2.175781 -1.664062 L 3.3125 -2.5625 L 5.15625 -4.015625 C 5.1875 -4.039062 5.1875 -4.039062 5.1875 -4.039062 L 4.339844 -5.117188 C 4.339844 -5.117188 4.316406 -5.148438 4.316406 -5.148438 C 4.316406 -5.148438 4.316406 -5.148438 4.285156 -5.121094 C 3.949219 -4.855469 3.574219 -4.761719 3.226562 -4.886719 C 2.878906 -5.011719 2.558594 -5.355469 2.449219 -5.871094 L 1.246094 -10.054688 L 10.375 -17.25 L 14.222656 -15.148438 C 14.667969 -14.902344 14.929688 -14.507812 14.96875 -14.140625 C 15.007812 -13.773438 14.828125 -13.433594 14.492188 -13.167969 C 14.460938 -13.144531 14.460938 -13.144531 14.484375 -13.113281 L 15.332031 -12.035156 C 15.332031 -12.035156 15.363281 -12.058594 15.363281 -12.058594 L 17.207031 -13.515625 L 22.648438 -17.804688 C 22.648438 -17.804688 22.679688 -17.828125 22.679688 -17.828125 L 21.832031 -18.902344 C 21.808594 -18.933594 21.808594 -18.933594 21.777344 -18.910156 L 21.347656 -18.570312 C 20.578125 -17.964844 19.203125 -17.878906 18.289062 -18.402344 L -4.625 -31.09375 L -4.703125 -31.132812 C -4.703125 -31.132812 -4.726562 -31.160156 -4.757812 -31.136719 L -5.832031 -30.289062 C -5.863281 -30.265625 -5.839844 -30.234375 -5.839844 -30.234375 L -4.554688 -25.566406 L 1.226562 -4.953125 C 1.496094 -3.921875 1.121094 -2.625 0.351562 -2.019531 L -0.109375 -1.65625 C -0.109375 -1.65625 -0.0859375 -1.625 -0.0859375 -1.625 Z M -2.777344 -24.574219 L 9.042969 -17.992188 L 0.867188 -11.546875 Z M -2.777344 -24.574219 "/></g></g></g><g fill="#000000" fill-opacity="1"><g transform="translate(116.755069, 117.55145)"><g><path d="M 9.441406 -27.074219 C 10.03125 -25.882812 11.464844 -25.371094 12.660156 -25.960938 C 13.851562 -26.550781 14.347656 -28.019531 13.757812 -29.210938 C 11.96875 -32.824219 7.566406 -34.3125 3.953125 -32.523438 L -4.785156 -28.203125 C -8.398438 -26.414062 -9.851562 -22.027344 -8.0625 -18.414062 C -7.351562 -16.976562 -6.21875 -15.832031 -4.804688 -15.089844 C -3.421875 -14.421875 -1.8125 -14.167969 -0.289062 -14.441406 L 12.988281 -16.996094 C 14.792969 -17.320312 16.558594 -16.402344 17.375 -14.753906 C 18.378906 -12.71875 17.53125 -10.203125 15.496094 -9.195312 L 8.515625 -5.742188 C 5.214844 -4.109375 1.230469 -5.457031 -0.402344 -8.753906 C -0.417969 -8.789062 -0.453125 -8.773438 -0.453125 -8.773438 L -1.679688 -8.164062 C -1.679688 -8.164062 -1.714844 -8.148438 -1.699219 -8.113281 L 1.859375 -0.921875 C 1.875 -0.886719 1.910156 -0.902344 1.910156 -0.902344 L 16.121094 -7.933594 C 19.734375 -9.71875 21.238281 -14.089844 19.453125 -17.703125 C 18.738281 -19.140625 17.605469 -20.285156 16.15625 -21.007812 C 14.757812 -21.714844 13.167969 -21.929688 11.679688 -21.675781 L -1.636719 -19.105469 C -3.40625 -18.796875 -5.203125 -19.695312 -6.019531 -21.347656 C -7.042969 -23.414062 -6.175781 -25.898438 -4.140625 -26.90625 L 4.59375 -31.226562 C 6.769531 -32.304688 9.234375 -31.90625 10.996094 -30.464844 C 10.839844 -30.429688 10.664062 -30.34375 10.523438 -30.273438 C 9.332031 -29.683594 8.851562 -28.269531 9.441406 -27.074219 Z M 9.441406 -27.074219 "/></g></g></g><g fill="#000000" fill-opacity="1"><g transform="translate(140.471528, 105.836377)"><g><path d="M 17.246094 -32.992188 L 7.796875 -30.441406 C 7.796875 -30.441406 7.789062 -30.480469 7.789062 -30.480469 L 3.214844 -29.246094 C 3.214844 -29.246094 3.226562 -29.210938 3.226562 -29.210938 L -6.222656 -26.660156 L -4.121094 -18.875 C -4.109375 -18.835938 -4.109375 -18.835938 -4.109375 -18.835938 L -2.789062 -19.195312 C -2.75 -19.203125 -2.75 -19.203125 -2.761719 -19.242188 C -3.71875 -22.792969 -1.621094 -26.441406 1.929688 -27.398438 L 3.554688 -27.839844 L 9.5 -5.808594 C 9.753906 -4.863281 9.203125 -3.902344 8.257812 -3.648438 C 8.257812 -3.648438 8.257812 -3.648438 8.269531 -3.609375 L 8.625 -2.289062 L 16.675781 -4.460938 C 16.675781 -4.460938 16.714844 -4.46875 16.714844 -4.46875 L 16.355469 -5.792969 C 16.347656 -5.828125 16.308594 -5.820312 16.308594 -5.820312 C 15.363281 -5.566406 14.402344 -6.117188 14.148438 -7.0625 L 8.664062 -27.390625 C 8.4375 -28.222656 7.734375 -28.722656 6.957031 -28.757812 L 9.828125 -29.53125 C 13.382812 -30.488281 17.027344 -28.394531 17.988281 -24.839844 C 17.996094 -24.804688 18.035156 -24.8125 18.035156 -24.8125 L 19.355469 -25.171875 C 19.355469 -25.171875 19.394531 -25.179688 19.382812 -25.21875 L 17.285156 -33.003906 C 17.285156 -33.003906 17.246094 -32.992188 17.246094 -32.992188 Z M 17.246094 -32.992188 "/></g></g></g><g fill="#000000" fill-opacity="1"><g transform="translate(165.937415, 98.885719)"><g><path d="M 0.941406 -0.0195312 L 2.738281 -0.128906 L 26.957031 -1.625 C 26.996094 -1.628906 26.996094 -1.628906 26.996094 -1.628906 L 26.5 -9.675781 C 26.5 -9.714844 26.5 -9.714844 26.460938 -9.710938 L 25.132812 -9.628906 C 25.09375 -9.628906 25.09375 -9.628906 25.09375 -9.589844 C 25.320312 -5.917969 22.535156 -2.765625 18.863281 -2.535156 L 7.417969 -1.832031 L 6.703125 -13.394531 L 12.5625 -13.757812 C 13.5 -13.8125 14.328125 -13.082031 14.390625 -12.105469 C 14.390625 -12.105469 14.433594 -12.066406 14.433594 -12.066406 L 15.800781 -12.152344 C 15.800781 -12.152344 15.835938 -12.195312 15.835938 -12.195312 L 15.53125 -17.117188 C 15.53125 -17.117188 15.492188 -17.152344 15.492188 -17.152344 L 14.121094 -17.066406 C 14.121094 -17.066406 14.085938 -17.027344 14.085938 -17.027344 C 14.148438 -16.050781 13.414062 -15.21875 12.476562 -15.164062 L 6.617188 -14.800781 L 6.011719 -24.605469 C 5.957031 -25.464844 5.371094 -26.097656 4.613281 -26.285156 L 17.347656 -27.070312 C 21.019531 -27.296875 24.171875 -24.511719 24.398438 -20.839844 C 24.402344 -20.800781 24.402344 -20.800781 24.441406 -20.804688 L 25.769531 -20.886719 C 25.808594 -20.886719 25.808594 -20.886719 25.804688 -20.925781 L 25.308594 -28.972656 C 25.308594 -28.972656 25.308594 -28.972656 25.269531 -28.972656 L 5.777344 -27.769531 C 5.777344 -27.769531 5.773438 -27.808594 5.773438 -27.808594 L 1.046875 -27.515625 C 1.046875 -27.515625 1.046875 -27.476562 1.046875 -27.476562 L -0.75 -27.367188 L -0.664062 -26 C -0.660156 -25.960938 -0.660156 -25.960938 -0.660156 -25.960938 C 0.316406 -26.019531 1.144531 -25.285156 1.207031 -24.308594 L 2.503906 -3.292969 C 2.5625 -2.316406 1.828125 -1.484375 0.851562 -1.425781 C 0.851562 -1.425781 0.851562 -1.425781 0.855469 -1.386719 Z M 0.941406 -0.0195312 "/></g></g></g><g fill="#000000" fill-opacity="1"><g transform="translate(193.970887, 97.159916)"><g><path d="M 0.921875 0.175781 L 2.703125 0.4375 L 7.390625 1.128906 L 26.714844 3.976562 C 26.753906 3.980469 26.753906 3.980469 26.753906 3.980469 L 27.925781 -3.996094 C 27.933594 -4.035156 27.933594 -4.035156 27.894531 -4.039062 L 26.578125 -4.234375 C 26.539062 -4.242188 26.539062 -4.242188 26.535156 -4.203125 C 25.996094 -0.5625 22.621094 1.949219 18.980469 1.410156 L 6.355469 -0.449219 C 7.125 -0.570312 7.765625 -1.152344 7.890625 -2.003906 L 10.960938 -22.835938 C 11.101562 -23.804688 11.992188 -24.464844 12.960938 -24.320312 C 12.960938 -24.320312 13 -24.316406 13.003906 -24.355469 L 13.203125 -25.710938 C 13.203125 -25.710938 13.164062 -25.714844 13.164062 -25.714844 L 11.382812 -25.976562 C 11.382812 -25.976562 11.390625 -26.015625 11.390625 -26.015625 L 6.703125 -26.707031 C 6.703125 -26.707031 6.699219 -26.667969 6.699219 -26.667969 L 4.917969 -26.929688 L 4.71875 -25.574219 C 4.710938 -25.535156 4.710938 -25.535156 4.710938 -25.535156 C 5.679688 -25.394531 6.339844 -24.503906 6.199219 -23.539062 L 3.128906 -2.703125 C 2.984375 -1.734375 2.097656 -1.074219 1.128906 -1.21875 C 1.128906 -1.21875 1.128906 -1.21875 1.125 -1.179688 L 0.929688 0.136719 C 0.886719 0.171875 0.921875 0.175781 0.921875 0.175781 Z M 0.921875 0.175781 "/></g></g></g><g fill="#000000" fill-opacity="1"><g transform="translate(221.756827, 101.258179)"><g><path d="M 0.867188 0.363281 L 2.554688 0.988281 L 25.316406 9.402344 C 25.355469 9.417969 25.355469 9.417969 25.355469 9.417969 L 28.152344 1.855469 C 28.164062 1.816406 28.164062 1.816406 28.128906 1.804688 L 26.878906 1.34375 C 26.84375 1.328125 26.84375 1.328125 26.828125 1.367188 C 25.554688 4.816406 21.730469 6.574219 18.28125 5.300781 L 7.523438 1.320312 L 11.542969 -9.546875 L 17.050781 -7.507812 C 17.929688 -7.183594 18.394531 -6.175781 18.054688 -5.257812 C 18.054688 -5.257812 18.078125 -5.210938 18.078125 -5.210938 L 19.363281 -4.734375 C 19.363281 -4.734375 19.410156 -4.757812 19.410156 -4.757812 L 21.121094 -9.382812 C 21.121094 -9.382812 21.097656 -9.433594 21.097656 -9.433594 L 19.8125 -9.910156 C 19.8125 -9.910156 19.765625 -9.886719 19.765625 -9.886719 C 19.425781 -8.96875 18.417969 -8.503906 17.539062 -8.832031 L 12.03125 -10.867188 L 15.4375 -20.082031 C 15.738281 -20.890625 15.453125 -21.703125 14.835938 -22.179688 L 26.804688 -17.757812 C 30.257812 -16.480469 32.015625 -12.65625 30.738281 -9.207031 C 30.726562 -9.171875 30.726562 -9.171875 30.761719 -9.15625 L 32.011719 -8.695312 C 32.046875 -8.683594 32.046875 -8.683594 32.0625 -8.71875 L 34.855469 -16.28125 C 34.855469 -16.28125 34.855469 -16.28125 34.820312 -16.292969 L 16.5 -23.070312 C 16.5 -23.070312 16.515625 -23.105469 16.515625 -23.105469 L 12.074219 -24.75 C 12.074219 -24.75 12.058594 -24.710938 12.058594 -24.710938 L 10.371094 -25.335938 L 9.894531 -24.050781 C 9.882812 -24.015625 9.882812 -24.015625 9.882812 -24.015625 C 10.800781 -23.675781 11.261719 -22.667969 10.921875 -21.75 L 3.621094 -2 C 3.28125 -1.082031 2.273438 -0.621094 1.355469 -0.960938 C 1.355469 -0.960938 1.355469 -0.960938 1.34375 -0.921875 Z M 0.867188 0.363281 "/></g></g></g><g fill="#000000" fill-opacity="1"><g transform="translate(248.082881, 110.891489)"><g><path d="M 25.019531 14.347656 L 24.257812 13.863281 C 23.433594 13.335938 22.734375 11.960938 22.699219 10.777344 L 22.535156 4.636719 C 24.363281 4.828125 26.191406 4.511719 27.890625 3.738281 C 29.613281 2.933594 31.054688 1.625 32.085938 0.0078125 C 35.078125 -4.679688 33.714844 -10.980469 29.03125 -13.972656 L 17.054688 -21.617188 C 17.054688 -21.617188 17.035156 -21.585938 17.035156 -21.585938 L 15.515625 -22.554688 L 14.777344 -21.398438 C 14.757812 -21.367188 14.757812 -21.367188 14.757812 -21.367188 C 15.582031 -20.839844 15.820312 -19.757812 15.292969 -18.933594 L 3.960938 -1.1875 C 3.433594 -0.359375 2.355469 -0.121094 1.527344 -0.648438 C 1.527344 -0.648438 1.527344 -0.648438 1.507812 -0.617188 L 0.769531 0.539062 L 2.289062 1.507812 L 6.28125 4.054688 L 7.796875 5.023438 C 7.796875 5.023438 7.832031 5.046875 7.832031 5.046875 L 8.566406 3.890625 C 8.589844 3.859375 8.554688 3.835938 8.554688 3.835938 C 7.730469 3.3125 7.492188 2.230469 8.019531 1.40625 L 10.167969 -1.960938 L 17.65625 2.820312 L 17.796875 7.695312 C 17.820312 8.3125 17.613281 8.785156 17.3125 8.964844 C 17.03125 9.109375 16.738281 9.0625 16.40625 8.851562 C 16.375 8.828125 16.375 8.828125 16.375 8.828125 C 16.375 8.828125 16.355469 8.863281 16.355469 8.863281 L 15.617188 10.015625 C 15.617188 10.015625 15.617188 10.015625 15.648438 10.039062 L 24.261719 15.535156 C 24.261719 15.535156 24.261719 15.535156 24.292969 15.558594 L 25.03125 14.402344 C 25.050781 14.371094 25.050781 14.371094 25.019531 14.347656 Z M 10.925781 -3.148438 L 19.351562 -16.34375 C 19.816406 -17.070312 19.710938 -17.925781 19.210938 -18.523438 L 20.265625 -17.847656 L 28.25 -12.75 C 30.691406 -11.191406 30.597656 -6.609375 28.027344 -2.585938 C 26.53125 -0.242188 24.429688 1.527344 22.390625 2.175781 C 21.039062 2.613281 19.832031 2.539062 18.875 1.929688 Z M 10.925781 -3.148438 "/></g></g></g><g fill="#000000" fill-opacity="1"><g transform="translate(273.29328, 127.932087)"><g><path d="M 24.308594 -21.152344 L 23.257812 -21.085938 C 23.226562 -21.113281 23.203125 -21.082031 23.230469 -21.058594 L 23.289062 -19.703125 C 23.289062 -19.703125 23.320312 -19.675781 23.320312 -19.675781 C 23.320312 -19.675781 23.320312 -19.675781 23.347656 -19.652344 L 26.578125 -19.882812 C 27.1875 -19.921875 27.804688 -20.210938 28.21875 -20.683594 C 29.097656 -21.679688 29.03125 -23.203125 28.03125 -24.082031 C 27.03125 -24.960938 25.484375 -24.863281 24.605469 -23.863281 C 23.933594 -23.097656 23.863281 -22.011719 24.308594 -21.152344 Z M 21.625 -13.191406 C 22.269531 -13.925781 23.375 -13.996094 24.109375 -13.347656 C 24.109375 -13.347656 24.140625 -13.324219 24.164062 -13.351562 L 25.070312 -14.378906 C 25.070312 -14.378906 25.042969 -14.40625 25.042969 -14.40625 L 23.691406 -15.597656 C 23.691406 -15.597656 23.714844 -15.625 23.714844 -15.625 L 20.160156 -18.753906 C 20.160156 -18.753906 20.136719 -18.726562 20.136719 -18.726562 L 18.785156 -19.914062 L 17.878906 -18.886719 C 17.851562 -18.859375 17.851562 -18.859375 17.851562 -18.859375 C 18.585938 -18.210938 18.65625 -17.105469 18.011719 -16.371094 L 4.097656 -0.566406 C 3.449219 0.167969 2.34375 0.238281 1.609375 -0.40625 C 1.609375 -0.40625 1.609375 -0.40625 1.585938 -0.378906 L 0.679688 0.648438 L 2.03125 1.839844 L 5.585938 4.96875 L 6.9375 6.160156 C 6.9375 6.160156 6.964844 6.183594 6.964844 6.183594 L 7.871094 5.15625 C 7.898438 5.128906 7.867188 5.101562 7.867188 5.101562 C 7.132812 4.453125 7.0625 3.351562 7.710938 2.617188 C 7.710938 2.617188 21.625 -13.191406 21.625 -13.191406 Z M 21.625 -13.191406 "/></g></g></g><g fill="#000000" fill-opacity="1"><g transform="translate(282.013884, 134.681733)"><g><path d="M 0.570312 0.746094 L 1.726562 2.128906 L 2.652344 3.242188 L 4.15625 5.042969 C 4.183594 5.074219 4.183594 5.074219 4.183594 5.074219 L 5.234375 4.195312 C 5.234375 4.195312 5.265625 4.171875 5.265625 4.171875 C 5.265625 4.171875 5.265625 4.171875 5.238281 4.140625 C 4.964844 3.8125 4.859375 3.441406 4.972656 3.089844 C 5.089844 2.738281 5.425781 2.40625 5.933594 2.285156 L 10.082031 0.964844 L 17.53125 9.890625 L 15.539062 13.796875 C 15.304688 14.25 14.917969 14.519531 14.550781 14.570312 C 14.1875 14.621094 13.839844 14.449219 13.566406 14.121094 C 13.539062 14.089844 13.539062 14.089844 13.507812 14.113281 L 12.457031 14.992188 C 12.457031 14.992188 12.484375 15.023438 12.484375 15.023438 L 13.988281 16.824219 L 18.425781 22.144531 C 18.425781 22.144531 18.449219 22.175781 18.449219 22.175781 L 19.503906 21.296875 C 19.53125 21.273438 19.53125 21.273438 19.507812 21.242188 L 19.15625 20.820312 C 18.53125 20.070312 18.402344 18.699219 18.902344 17.769531 L 30.953125 -5.484375 L 30.988281 -5.566406 C 30.988281 -5.566406 31.019531 -5.589844 30.992188 -5.621094 L 30.117188 -6.671875 C 30.089844 -6.703125 30.058594 -6.679688 30.058594 -6.679688 L 25.429688 -5.261719 L 4.988281 1.089844 C 3.960938 1.386719 2.65625 1.046875 2.03125 0.292969 L 1.652344 -0.15625 C 1.652344 -0.15625 1.625 -0.132812 1.625 -0.132812 Z M 24.488281 -3.457031 L 18.238281 8.539062 L 11.566406 0.542969 Z M 24.488281 -3.457031 "/></g></g></g><g fill="#000000" fill-opacity="1"><g transform="translate(135.51599, 298.883687)"><g><path d="M 17.875 2.9375 L 17.320312 2.820312 C 16.71875 2.691406 16.003906 2.035156 15.726562 1.347656 L 14.277344 -2.230469 C 15.394531 -2.519531 16.398438 -3.109375 17.230469 -3.9375 C 18.066406 -4.789062 18.625 -5.875 18.875 -7.054688 C 19.605469 -10.46875 17.417969 -13.875 14.003906 -14.605469 L 5.277344 -16.46875 C 5.277344 -16.46875 5.273438 -16.445312 5.273438 -16.445312 L 4.167969 -16.679688 L 3.988281 -15.839844 C 3.980469 -15.816406 3.980469 -15.816406 3.980469 -15.816406 C 4.582031 -15.6875 4.960938 -15.105469 4.832031 -14.503906 L 2.070312 -1.570312 C 1.941406 -0.96875 1.359375 -0.589844 0.757812 -0.71875 C 0.757812 -0.71875 0.757812 -0.71875 0.75 -0.695312 L 0.570312 0.148438 L 1.675781 0.382812 L 4.585938 1.003906 L 5.691406 1.242188 C 5.691406 1.242188 5.714844 1.246094 5.714844 1.246094 L 5.894531 0.40625 C 5.902344 0.378906 5.878906 0.375 5.878906 0.375 C 5.277344 0.246094 4.898438 -0.335938 5.027344 -0.9375 L 5.550781 -3.390625 L 11.007812 -2.222656 L 12.160156 0.613281 C 12.3125 0.96875 12.292969 1.292969 12.15625 1.464844 C 12.023438 1.613281 11.839844 1.648438 11.597656 1.597656 C 11.574219 1.59375 11.574219 1.59375 11.574219 1.59375 C 11.574219 1.59375 11.570312 1.617188 11.570312 1.617188 L 11.390625 2.457031 C 11.390625 2.457031 11.390625 2.457031 11.414062 2.464844 L 17.6875 3.804688 C 17.6875 3.804688 17.6875 3.804688 17.710938 3.808594 L 17.894531 2.96875 C 17.898438 2.941406 17.898438 2.941406 17.875 2.9375 Z M 5.734375 -4.253906 L 7.789062 -13.871094 C 7.902344 -14.398438 7.652344 -14.878906 7.226562 -15.121094 L 7.996094 -14.957031 L 13.8125 -13.714844 C 15.59375 -13.335938 16.546875 -10.617188 15.917969 -7.683594 C 15.554688 -5.976562 14.707031 -4.476562 13.648438 -3.644531 C 12.953125 -3.089844 12.226562 -2.867188 11.527344 -3.015625 Z M 5.734375 -4.253906 "/></g></g></g><g fill="#000000" fill-opacity="1"><g transform="translate(166.422259, 304.20538)"><g><path d="M 0.585938 0.0703125 L 1.714844 0.15625 L 4.679688 0.386719 L 5.808594 0.472656 C 5.808594 0.472656 5.832031 0.472656 5.832031 0.472656 L 5.898438 -0.382812 C 5.898438 -0.40625 5.875 -0.410156 5.875 -0.410156 C 5.261719 -0.457031 4.808594 -0.984375 4.855469 -1.597656 L 5.875 -14.785156 C 5.921875 -15.398438 6.449219 -15.847656 7.0625 -15.800781 C 7.0625 -15.800781 7.085938 -15.800781 7.089844 -15.824219 L 7.15625 -16.683594 C 7.15625 -16.683594 7.128906 -16.683594 7.128906 -16.683594 L 6.003906 -16.769531 C 6.003906 -16.769531 6.003906 -16.796875 6.003906 -16.796875 L 3.039062 -17.023438 C 3.039062 -17.023438 3.039062 -17 3.039062 -17 L 1.910156 -17.085938 L 1.84375 -16.230469 C 1.84375 -16.203125 1.84375 -16.203125 1.84375 -16.203125 C 2.453125 -16.15625 2.90625 -15.628906 2.859375 -15.015625 L 1.84375 -1.832031 C 1.796875 -1.21875 1.265625 -0.765625 0.65625 -0.8125 C 0.65625 -0.8125 0.65625 -0.8125 0.652344 -0.789062 Z M 0.585938 0.0703125 "/></g></g></g><g fill="#000000" fill-opacity="1"><g transform="translate(185.473336, 305.187554)"><g><path d="M 9.183594 -0.433594 C 11.492188 -0.550781 13.609375 -1.539062 15.148438 -3.242188 C 15.148438 -3.242188 15.148438 -3.265625 15.148438 -3.265625 C 15.148438 -3.265625 15.148438 -3.265625 15.144531 -3.292969 L 14.503906 -3.851562 C 14.503906 -3.851562 14.476562 -3.847656 14.476562 -3.847656 C 13.101562 -2.328125 11.203125 -1.421875 9.140625 -1.316406 C 6.070312 -1.164062 3.394531 -4.5 3.179688 -8.75 C 2.96875 -12.996094 5.300781 -16.582031 8.371094 -16.738281 C 9.941406 -16.816406 11.460938 -16.421875 12.785156 -15.601562 C 12.636719 -15.546875 12.519531 -15.441406 12.402344 -15.3125 C 12.125 -15.003906 11.996094 -14.628906 12.015625 -14.210938 C 12.035156 -13.816406 12.203125 -13.433594 12.511719 -13.175781 C 12.820312 -12.898438 13.195312 -12.769531 13.589844 -12.789062 C 13.980469 -12.808594 14.367188 -12.976562 14.648438 -13.285156 C 14.902344 -13.566406 15.054688 -13.96875 15.035156 -14.363281 C 15.015625 -14.777344 14.824219 -15.140625 14.539062 -15.421875 C 12.839844 -16.960938 10.632812 -17.734375 8.324219 -17.621094 C 3.585938 -17.382812 -0.0742188 -13.335938 0.160156 -8.597656 C 0.398438 -3.859375 4.445312 -0.199219 9.183594 -0.433594 Z M 9.183594 -0.433594 "/></g></g></g><g fill="#000000" fill-opacity="1"><g transform="translate(214.570901, 302.79734)"><g><path d="M 0.582031 -0.0976562 L 1.6875 -0.335938 L 2.578125 -0.527344 L 4.019531 -0.832031 C 4.042969 -0.839844 4.042969 -0.839844 4.042969 -0.839844 L 3.863281 -1.679688 C 3.863281 -1.679688 3.859375 -1.703125 3.859375 -1.703125 C 3.859375 -1.703125 3.859375 -1.703125 3.835938 -1.699219 C 3.570312 -1.640625 3.332031 -1.691406 3.171875 -1.859375 C 3.011719 -2.027344 2.925781 -2.308594 3.007812 -2.628906 L 3.488281 -5.320312 L 10.628906 -6.84375 L 12.214844 -4.59375 C 12.398438 -4.332031 12.433594 -4.039062 12.355469 -3.820312 C 12.277344 -3.601562 12.082031 -3.460938 11.816406 -3.402344 C 11.792969 -3.398438 11.792969 -3.398438 11.796875 -3.375 L 11.976562 -2.53125 C 11.976562 -2.53125 12 -2.539062 12 -2.539062 L 13.445312 -2.847656 L 17.699219 -3.753906 C 17.699219 -3.753906 17.722656 -3.761719 17.722656 -3.761719 L 17.542969 -4.601562 C 17.539062 -4.625 17.539062 -4.625 17.515625 -4.621094 L 17.175781 -4.550781 C 16.578125 -4.421875 15.777344 -4.753906 15.40625 -5.300781 L 6.011719 -18.804688 L 5.980469 -18.847656 C 5.980469 -18.847656 5.972656 -18.871094 5.949219 -18.867188 L 5.109375 -18.6875 C 5.085938 -18.683594 5.089844 -18.65625 5.089844 -18.65625 L 4.519531 -15.671875 L 2.066406 -2.453125 C 1.929688 -1.792969 1.359375 -1.171875 0.757812 -1.042969 L 0.398438 -0.964844 C 0.398438 -0.964844 0.402344 -0.941406 0.402344 -0.941406 Z M 5.25 -14.621094 L 10.082031 -7.632812 L 3.6875 -6.269531 Z M 5.25 -14.621094 "/></g></g></g></svg>